<?xml version="1.0" encoding="UTF-8"?>
<svg xmlns="http://www.w3.org/2000/svg" xmlns:xlink="http://www.w3.org/1999/xlink" width="69px" height="64px" viewBox="0 0 68 64" version="1.1">
<g id="surface1">
<path style=" stroke:none;fill-rule:nonzero;fill:rgb(100%,100%,100%);fill-opacity:1;" d="M 38.753906 64.054688 C 25.835938 64.054688 12.945312 64.054688 0.0546875 64.054688 C 0.0546875 42.722656 0.0546875 21.386719 0.0546875 0.0546875 C 22.730469 0.0546875 45.40625 0.0546875 68.082031 0.0546875 C 68.082031 21.386719 68.082031 42.722656 68.082031 64.054688 C 58.316406 64.054688 48.550781 64.054688 38.753906 64.054688 M 21.867188 4.390625 C 20.949219 4.835938 20.113281 5.410156 19.371094 6.109375 C 18.164062 7.242188 17.253906 8.585938 16.660156 10.144531 C 16.195312 11.363281 15.941406 12.625 15.941406 13.9375 C 15.945312 21.054688 15.941406 28.171875 15.941406 35.289062 C 15.941406 35.40625 15.941406 35.523438 15.941406 35.648438 C 17.691406 35.648438 19.410156 35.648438 21.160156 35.648438 C 21.160156 26.675781 21.160156 17.722656 21.160156 8.75 C 21.289062 8.75 21.390625 8.75 21.488281 8.75 C 22.964844 8.761719 24.445312 8.78125 25.921875 8.785156 C 30.253906 8.789062 34.585938 8.785156 38.914062 8.785156 C 39.023438 8.785156 39.128906 8.785156 39.238281 8.785156 C 39.238281 11.472656 39.238281 14.132812 39.238281 16.808594 C 39.117188 16.808594 39.019531 16.808594 38.917969 16.808594 C 36.417969 16.808594 33.914062 16.804688 31.410156 16.808594 C 31.066406 16.8125 30.714844 16.832031 30.375 16.886719 C 28.539062 17.171875 26.996094 18.019531 25.757812 19.414062 C 24.394531 20.949219 23.714844 22.777344 23.699219 24.828125 C 23.667969 28.359375 23.691406 31.886719 23.691406 35.417969 C 23.691406 35.5 23.699219 35.578125 23.707031 35.667969 C 23.839844 35.667969 23.949219 35.667969 24.058594 35.667969 C 29.914062 35.667969 35.769531 35.667969 41.628906 35.671875 C 42.265625 35.671875 42.898438 35.625 43.53125 35.519531 C 45.527344 35.1875 47.269531 34.316406 48.761719 32.945312 C 49.800781 31.996094 50.613281 30.871094 51.210938 29.585938 C 51.882812 28.140625 52.242188 26.621094 52.246094 25.027344 C 52.253906 17.882812 52.25 10.738281 52.25 3.59375 C 52.25 3.523438 52.238281 3.453125 52.234375 3.386719 C 51.722656 3.332031 47.25 3.355469 47.03125 3.417969 C 47.03125 12.347656 47.03125 21.285156 47.03125 30.234375 C 40.992188 30.234375 34.976562 30.234375 28.953125 30.234375 C 28.953125 27.5625 28.953125 24.902344 28.953125 22.226562 C 29.066406 22.226562 29.167969 22.226562 29.265625 22.226562 C 31.652344 22.226562 34.035156 22.230469 36.417969 22.226562 C 36.984375 22.226562 37.546875 22.183594 38.101562 22.078125 C 39.683594 21.78125 41.03125 21.027344 42.160156 19.886719 C 42.84375 19.195312 43.375 18.394531 43.765625 17.5 C 44.195312 16.523438 44.457031 15.5 44.460938 14.433594 C 44.472656 10.808594 44.464844 7.1875 44.464844 3.5625 C 44.464844 3.5 44.453125 3.441406 44.445312 3.363281 C 44.320312 3.363281 44.210938 3.363281 44.101562 3.363281 C 38.21875 3.363281 32.335938 3.363281 26.453125 3.367188 C 26.042969 3.367188 25.632812 3.386719 25.226562 3.421875 C 24.0625 3.535156 22.957031 3.855469 21.867188 4.390625 M 41.6875 51.785156 C 42.875 51.785156 44.0625 51.785156 45.25 51.785156 C 45.734375 51.785156 46.214844 51.71875 46.675781 51.558594 C 47.261719 51.355469 47.699219 50.980469 47.976562 50.410156 C 48.269531 49.808594 48.34375 49.164062 48.355469 48.511719 C 48.367188 47.671875 48.359375 46.832031 48.355469 45.992188 C 48.355469 45.566406 48.292969 45.152344 48.179688 44.742188 C 47.921875 43.851562 47.351562 43.265625 46.46875 43.007812 C 46.011719 42.871094 45.542969 42.804688 45.066406 42.804688 C 43.558594 42.804688 42.050781 42.804688 40.542969 42.804688 C 40.464844 42.804688 40.382812 42.804688 40.300781 42.804688 C 40.300781 45.8125 40.300781 48.792969 40.300781 51.785156 C 40.757812 51.785156 41.195312 51.785156 41.6875 51.785156 M 17.550781 50.695312 C 17.550781 51.054688 17.550781 51.410156 17.550781 51.765625 C 18.371094 51.765625 19.160156 51.765625 19.945312 51.765625 C 19.945312 48.773438 19.945312 45.800781 19.945312 42.824219 C 19.144531 42.824219 18.355469 42.824219 17.546875 42.824219 C 17.546875 43.949219 17.546875 45.050781 17.546875 46.148438 C 17.207031 46.203125 14.71875 46.191406 14.507812 46.128906 C 14.507812 45.035156 14.507812 43.929688 14.507812 42.824219 C 13.699219 42.824219 12.910156 42.824219 12.117188 42.824219 C 12.117188 45.8125 12.117188 48.785156 12.117188 51.765625 C 12.921875 51.765625 13.707031 51.765625 14.519531 51.765625 C 14.519531 50.601562 14.519531 49.453125 14.519531 48.300781 C 15.542969 48.300781 16.539062 48.300781 17.535156 48.300781 C 17.542969 48.339844 17.546875 48.355469 17.546875 48.375 C 17.550781 49.128906 17.550781 49.886719 17.550781 50.695312 M 6.441406 49.5 C 6.933594 49.5 7.429688 49.511719 7.921875 49.496094 C 8.320312 49.480469 8.722656 49.453125 9.113281 49.386719 C 10.082031 49.226562 10.621094 48.667969 10.804688 47.695312 C 10.945312 46.957031 10.929688 46.210938 10.90625 45.46875 C 10.890625 45.070312 10.808594 44.683594 10.679688 44.3125 C 10.449219 43.664062 10.011719 43.226562 9.363281 43.007812 C 8.96875 42.871094 8.566406 42.808594 8.15625 42.808594 C 6.648438 42.800781 5.140625 42.804688 3.636719 42.804688 C 3.566406 42.804688 3.496094 42.816406 3.421875 42.820312 C 3.421875 45.8125 3.421875 48.785156 3.421875 51.769531 C 4.214844 51.769531 4.996094 51.769531 5.808594 51.769531 C 5.808594 51.007812 5.808594 50.257812 5.808594 49.5 C 6.023438 49.5 6.207031 49.5 6.441406 49.5 M 49.210938 50.402344 C 49.085938 50.835938 48.964844 51.265625 48.835938 51.714844 C 49.65625 51.714844 50.453125 51.714844 51.269531 51.714844 C 51.410156 51.21875 51.550781 50.722656 51.691406 50.230469 C 52.742188 50.230469 53.777344 50.230469 54.832031 50.230469 C 54.972656 50.734375 55.109375 51.226562 55.246094 51.710938 C 56.066406 51.710938 56.863281 51.710938 57.675781 51.710938 C 57.601562 51.433594 57.535156 51.175781 57.460938 50.921875 C 56.859375 48.878906 56.261719 46.835938 55.652344 44.792969 C 55.535156 44.390625 55.402344 43.984375 55.222656 43.605469 C 54.957031 43.046875 54.507812 42.742188 53.867188 42.765625 C 53.429688 42.78125 52.988281 42.765625 52.550781 42.769531 C 52.101562 42.773438 51.742188 42.953125 51.472656 43.320312 C 51.257812 43.609375 51.121094 43.941406 51.019531 44.285156 C 50.417969 46.308594 49.820312 48.335938 49.210938 50.402344 M 21.355469 51.785156 C 21.992188 51.785156 22.628906 51.785156 23.273438 51.785156 C 23.425781 51.253906 23.570312 50.746094 23.710938 50.25 C 24.769531 50.25 25.800781 50.25 26.835938 50.25 C 26.980469 50.761719 27.121094 51.265625 27.265625 51.773438 C 28.078125 51.773438 28.878906 51.773438 29.699219 51.773438 C 29.675781 51.679688 29.664062 51.597656 29.640625 51.523438 C 28.949219 49.171875 28.253906 46.820312 27.5625 44.46875 C 27.449219 44.089844 27.3125 43.71875 27.082031 43.390625 C 26.824219 43.019531 26.46875 42.816406 26.019531 42.808594 C 25.519531 42.796875 25.015625 42.796875 24.515625 42.808594 C 24.066406 42.820312 23.710938 43.023438 23.453125 43.398438 C 23.25 43.695312 23.121094 44.027344 23.019531 44.375 C 22.394531 46.476562 21.773438 48.582031 21.152344 50.6875 C 21.046875 51.042969 20.941406 51.398438 20.832031 51.785156 C 21.011719 51.785156 21.15625 51.785156 21.355469 51.785156 M 36.632812 44.90625 C 36.777344 44.929688 36.792969 44.84375 36.792969 44.722656 C 36.789062 44.164062 36.792969 43.601562 36.789062 43.039062 C 36.789062 42.96875 36.785156 42.898438 36.78125 42.824219 C 34.3125 42.824219 31.859375 42.824219 29.414062 42.824219 C 29.363281 43.277344 29.378906 44.703125 29.4375 44.90625 C 29.699219 44.90625 29.964844 44.90625 30.226562 44.90625 C 30.5 44.90625 30.773438 44.90625 31.050781 44.90625 C 31.308594 44.910156 31.570312 44.890625 31.851562 44.925781 C 31.851562 47.226562 31.851562 49.496094 31.851562 51.785156 C 32.660156 51.777344 33.449219 51.800781 34.261719 51.773438 C 34.261719 49.46875 34.261719 47.199219 34.261719 44.90625 C 35.046875 44.90625 35.8125 44.90625 36.632812 44.90625 M 63.503906 44.90625 C 63.914062 44.90625 64.320312 44.90625 64.726562 44.90625 C 64.726562 44.1875 64.726562 43.503906 64.726562 42.820312 C 63.929688 42.761719 57.566406 42.789062 57.363281 42.851562 C 57.363281 43.527344 57.363281 44.207031 57.363281 44.914062 C 58.179688 44.914062 58.976562 44.914062 59.796875 44.914062 C 59.796875 45.316406 59.796875 45.691406 59.796875 46.070312 C 59.796875 46.457031 59.796875 46.84375 59.796875 47.230469 C 59.796875 47.609375 59.796875 47.984375 59.796875 48.363281 C 59.796875 48.742188 59.796875 49.117188 59.796875 49.496094 C 59.796875 49.882812 59.796875 50.269531 59.796875 50.65625 C 59.796875 51.03125 59.792969 51.402344 59.796875 51.769531 C 60.621094 51.769531 61.402344 51.769531 62.214844 51.769531 C 62.214844 49.476562 62.214844 47.199219 62.214844 44.90625 C 62.648438 44.90625 63.050781 44.90625 63.503906 44.90625 M 38.417969 59.269531 C 38.417969 58.308594 38.417969 57.347656 38.417969 56.382812 C 38.492188 56.40625 38.519531 56.433594 38.542969 56.46875 C 38.925781 57.074219 39.304688 57.683594 39.6875 58.289062 C 40.164062 59.050781 40.644531 59.808594 41.128906 60.570312 C 41.167969 60.632812 41.234375 60.714844 41.296875 60.71875 C 41.539062 60.738281 41.785156 60.726562 42.039062 60.726562 C 42.039062 58.917969 42.039062 57.132812 42.039062 55.34375 C 41.820312 55.34375 41.617188 55.34375 41.386719 55.34375 C 41.386719 56.789062 41.386719 58.21875 41.386719 59.648438 C 41.371094 59.652344 41.359375 59.65625 41.34375 59.65625 C 40.433594 58.21875 39.523438 56.777344 38.621094 55.34375 C 38.332031 55.34375 38.050781 55.34375 37.777344 55.34375 C 37.777344 57.144531 37.777344 58.925781 37.777344 60.714844 C 37.996094 60.714844 38.191406 60.714844 38.417969 60.714844 C 38.417969 60.242188 38.417969 59.785156 38.417969 59.269531 M 34.855469 58.542969 C 34.855469 58.195312 34.871094 57.84375 34.851562 57.496094 C 34.832031 57.128906 34.804688 56.761719 34.738281 56.402344 C 34.648438 55.898438 34.34375 55.554688 33.84375 55.4375 C 33.550781 55.371094 33.25 55.335938 32.953125 55.328125 C 32.230469 55.3125 31.511719 55.324219 30.789062 55.324219 C 30.710938 55.324219 30.632812 55.335938 30.558594 55.339844 C 30.558594 57.148438 30.558594 58.929688 30.558594 60.726562 C 30.652344 60.726562 30.722656 60.730469 30.792969 60.726562 C 31.605469 60.714844 32.414062 60.707031 33.226562 60.6875 C 33.414062 60.683594 33.609375 60.660156 33.792969 60.617188 C 34.253906 60.511719 34.59375 60.242188 34.699219 59.765625 C 34.78125 59.382812 34.804688 58.988281 34.855469 58.542969 M 45.527344 57.980469 C 45.328125 57.980469 45.128906 57.980469 44.917969 57.980469 C 44.917969 58.1875 44.917969 58.363281 44.917969 58.574219 C 45.5 58.574219 46.070312 58.574219 46.679688 58.574219 C 46.652344 58.933594 46.636719 59.265625 46.59375 59.589844 C 46.558594 59.867188 46.371094 60.027344 46.101562 60.070312 C 45.566406 60.152344 45.03125 60.164062 44.5 60.070312 C 44.210938 60.019531 44.015625 59.847656 43.925781 59.578125 C 43.863281 59.378906 43.820312 59.164062 43.8125 58.957031 C 43.792969 58.394531 43.785156 57.835938 43.796875 57.273438 C 43.800781 57.019531 43.84375 56.761719 43.90625 56.511719 C 43.976562 56.210938 44.171875 56.019531 44.488281 55.96875 C 44.996094 55.886719 45.503906 55.878906 46.011719 55.960938 C 46.453125 56.03125 46.582031 56.203125 46.601562 56.648438 C 46.605469 56.785156 46.601562 56.917969 46.601562 57.058594 C 46.839844 57.058594 47.042969 57.058594 47.25 57.058594 C 47.25 56.828125 47.265625 56.613281 47.246094 56.40625 C 47.191406 55.8125 46.902344 55.488281 46.320312 55.367188 C 45.683594 55.234375 45.035156 55.238281 44.394531 55.335938 C 43.675781 55.445312 43.304688 55.839844 43.191406 56.566406 C 43.15625 56.800781 43.152344 57.039062 43.128906 57.277344 C 43.050781 58.039062 43.074219 58.800781 43.207031 59.554688 C 43.304688 60.101562 43.554688 60.597656 44.363281 60.683594 C 44.851562 60.738281 45.34375 60.730469 45.835938 60.734375 C 46.003906 60.734375 46.179688 60.703125 46.347656 60.664062 C 46.867188 60.546875 47.191406 60.21875 47.246094 59.6875 C 47.300781 59.1875 47.296875 58.679688 47.316406 58.175781 C 47.316406 58.113281 47.300781 58.054688 47.292969 57.980469 C 46.710938 57.980469 46.144531 57.980469 45.527344 57.980469 M 51.433594 60.625 C 51.785156 60.511719 52 60.269531 52.085938 59.910156 C 52.179688 59.523438 52.183594 59.136719 52.148438 58.738281 C 52.097656 58.160156 51.746094 57.886719 51.335938 57.800781 C 50.980469 57.722656 50.617188 57.6875 50.261719 57.628906 C 49.957031 57.578125 49.652344 57.535156 49.351562 57.46875 C 49.15625 57.425781 49.019531 57.300781 49.007812 57.089844 C 48.996094 56.859375 49 56.628906 49.015625 56.398438 C 49.03125 56.171875 49.160156 56.023438 49.386719 55.980469 C 49.910156 55.882812 50.4375 55.878906 50.957031 55.984375 C 51.195312 56.03125 51.335938 56.195312 51.355469 56.445312 C 51.363281 56.554688 51.367188 56.667969 51.371094 56.777344 C 51.375 56.890625 51.375 57.007812 51.378906 57.117188 C 51.625 57.117188 51.832031 57.117188 52.078125 57.117188 C 52.058594 56.859375 52.046875 56.613281 52.03125 56.371094 C 51.984375 55.792969 51.695312 55.46875 51.121094 55.363281 C 50.578125 55.261719 50.03125 55.296875 49.488281 55.324219 C 49.324219 55.332031 49.164062 55.375 49.007812 55.429688 C 48.691406 55.542969 48.46875 55.757812 48.390625 56.105469 C 48.316406 56.457031 48.289062 56.808594 48.332031 57.167969 C 48.386719 57.636719 48.613281 57.949219 49.046875 58.074219 C 49.359375 58.164062 49.6875 58.203125 50.007812 58.253906 C 50.367188 58.3125 50.730469 58.34375 51.085938 58.417969 C 51.351562 58.46875 51.460938 58.617188 51.472656 58.878906 C 51.484375 59.109375 51.484375 59.339844 51.464844 59.570312 C 51.433594 59.894531 51.304688 60.019531 50.988281 60.078125 C 50.527344 60.167969 50.0625 60.15625 49.601562 60.101562 C 49.113281 60.046875 48.921875 59.976562 48.90625 59.289062 C 48.90625 59.214844 48.910156 59.144531 48.90625 59.070312 C 48.902344 59 48.894531 58.929688 48.886719 58.867188 C 48.664062 58.867188 48.460938 58.867188 48.230469 58.867188 C 48.25 59.175781 48.257812 59.460938 48.285156 59.742188 C 48.339844 60.277344 48.636719 60.589844 49.164062 60.679688 C 49.769531 60.785156 50.382812 60.757812 50.992188 60.722656 C 51.125 60.714844 51.257812 60.667969 51.433594 60.625 M 21.214844 57.011719 C 21.199219 57.25 21.167969 57.488281 21.171875 57.722656 C 21.179688 58.21875 21.195312 58.714844 21.226562 59.210938 C 21.242188 59.417969 21.296875 59.625 21.363281 59.824219 C 21.511719 60.296875 21.835938 60.585938 22.316406 60.667969 C 23.023438 60.792969 23.730469 60.789062 24.4375 60.671875 C 24.78125 60.613281 25.078125 60.4375 25.253906 60.125 C 25.359375 59.933594 25.453125 59.71875 25.476562 59.507812 C 25.539062 58.964844 25.5625 58.414062 25.585938 57.863281 C 25.597656 57.691406 25.566406 57.515625 25.554688 57.34375 C 25.53125 57.070312 25.527344 56.792969 25.476562 56.523438 C 25.367188 55.914062 25.074219 55.453125 24.34375 55.367188 C 23.875 55.3125 23.398438 55.3125 22.925781 55.308594 C 22.710938 55.308594 22.488281 55.335938 22.277344 55.382812 C 21.882812 55.472656 21.582031 55.691406 21.414062 56.078125 C 21.292969 56.359375 21.242188 56.65625 21.214844 57.011719 M 16.675781 57 C 16.675781 56.449219 16.675781 55.898438 16.675781 55.34375 C 16.441406 55.34375 16.238281 55.34375 16.035156 55.34375 C 16.035156 57.144531 16.035156 58.925781 16.035156 60.714844 C 16.25 60.714844 16.445312 60.714844 16.675781 60.714844 C 16.675781 59.886719 16.675781 59.074219 16.675781 58.257812 C 17.625 58.257812 18.539062 58.257812 19.476562 58.257812 C 19.476562 59.085938 19.476562 59.894531 19.476562 60.726562 C 19.597656 60.726562 19.695312 60.726562 19.792969 60.726562 C 19.898438 60.726562 20.003906 60.726562 20.109375 60.726562 C 20.109375 58.910156 20.109375 57.125 20.109375 55.347656 C 19.886719 55.347656 19.683594 55.347656 19.457031 55.347656 C 19.457031 56.101562 19.457031 56.835938 19.457031 57.589844 C 18.519531 57.589844 17.605469 57.59375 16.675781 57.589844 C 16.675781 57.386719 16.675781 57.21875 16.675781 57 M 27.382812 60.726562 C 28.191406 60.726562 29 60.726562 29.8125 60.726562 C 29.8125 60.496094 29.8125 60.300781 29.8125 60.078125 C 28.96875 60.078125 28.140625 60.078125 27.285156 60.078125 C 27.285156 58.484375 27.285156 56.914062 27.285156 55.34375 C 27.050781 55.34375 26.847656 55.34375 26.644531 55.34375 C 26.59375 56.003906 26.617188 60.507812 26.675781 60.726562 C 26.890625 60.726562 27.109375 60.726562 27.382812 60.726562 M 36.609375 57.832031 C 36.609375 57.003906 36.609375 56.179688 36.609375 55.324219 C 36.476562 55.324219 36.367188 55.324219 36.261719 55.324219 C 36.152344 55.324219 36.046875 55.324219 35.925781 55.324219 C 35.925781 57.136719 35.925781 58.917969 35.925781 60.714844 C 36.15625 60.714844 36.367188 60.714844 36.609375 60.714844 C 36.609375 59.761719 36.609375 58.824219 36.609375 57.832031 Z M 36.609375 57.832031 "/>
<path style=" stroke:none;fill-rule:nonzero;fill:rgb(91.764706%,13.725491%,16.862746%);fill-opacity:1;" d="M 21.886719 4.382812 C 22.957031 3.855469 24.0625 3.535156 25.226562 3.421875 C 25.632812 3.386719 26.042969 3.367188 26.453125 3.367188 C 32.335938 3.363281 38.21875 3.363281 44.101562 3.363281 C 44.210938 3.363281 44.320312 3.363281 44.445312 3.363281 C 44.453125 3.441406 44.464844 3.5 44.464844 3.5625 C 44.464844 7.1875 44.472656 10.808594 44.460938 14.433594 C 44.457031 15.5 44.195312 16.523438 43.765625 17.5 C 43.375 18.394531 42.84375 19.195312 42.160156 19.886719 C 41.03125 21.027344 39.683594 21.78125 38.101562 22.078125 C 37.546875 22.183594 36.984375 22.226562 36.417969 22.226562 C 34.035156 22.230469 31.652344 22.226562 29.265625 22.226562 C 29.167969 22.226562 29.066406 22.226562 28.953125 22.226562 C 28.953125 24.902344 28.953125 27.5625 28.953125 30.234375 C 34.976562 30.234375 40.992188 30.234375 47.03125 30.234375 C 47.03125 21.285156 47.03125 12.347656 47.03125 3.417969 C 47.25 3.355469 51.722656 3.332031 52.234375 3.386719 C 52.238281 3.453125 52.25 3.523438 52.25 3.59375 C 52.25 10.738281 52.253906 17.882812 52.246094 25.027344 C 52.242188 26.621094 51.882812 28.140625 51.210938 29.585938 C 50.613281 30.871094 49.800781 31.996094 48.761719 32.945312 C 47.269531 34.316406 45.527344 35.1875 43.53125 35.519531 C 42.898438 35.625 42.265625 35.671875 41.628906 35.671875 C 35.769531 35.667969 29.914062 35.667969 24.058594 35.667969 C 23.949219 35.667969 23.839844 35.667969 23.707031 35.667969 C 23.699219 35.578125 23.691406 35.5 23.691406 35.417969 C 23.691406 31.886719 23.667969 28.359375 23.699219 24.828125 C 23.714844 22.777344 24.394531 20.949219 25.757812 19.414062 C 26.996094 18.019531 28.539062 17.171875 30.375 16.886719 C 30.714844 16.832031 31.066406 16.8125 31.410156 16.808594 C 33.914062 16.804688 36.417969 16.808594 38.917969 16.808594 C 39.019531 16.808594 39.117188 16.808594 39.238281 16.808594 C 39.238281 14.132812 39.238281 11.472656 39.238281 8.785156 C 39.128906 8.785156 39.023438 8.785156 38.914062 8.785156 C 34.585938 8.785156 30.253906 8.789062 25.921875 8.785156 C 24.445312 8.78125 22.964844 8.761719 21.488281 8.75 C 21.390625 8.75 21.289062 8.75 21.160156 8.75 C 21.160156 17.722656 21.160156 26.675781 21.160156 35.648438 C 19.410156 35.648438 17.691406 35.648438 15.941406 35.648438 C 15.941406 35.523438 15.941406 35.40625 15.941406 35.289062 C 15.941406 28.171875 15.945312 21.054688 15.941406 13.9375 C 15.941406 12.625 16.195312 11.363281 16.660156 10.144531 C 17.253906 8.585938 18.164062 7.242188 19.371094 6.109375 C 20.113281 5.410156 20.949219 4.835938 21.886719 4.382812 Z M 21.886719 4.382812 "/>
<path style=" stroke:none;fill-rule:nonzero;fill:rgb(26.274511%,26.666668%,26.274511%);fill-opacity:1;" d="M 41.660156 51.785156 C 41.195312 51.785156 40.757812 51.785156 40.300781 51.785156 C 40.300781 48.792969 40.300781 45.8125 40.300781 42.804688 C 40.382812 42.804688 40.464844 42.804688 40.542969 42.804688 C 42.050781 42.804688 43.558594 42.804688 45.066406 42.804688 C 45.542969 42.804688 46.011719 42.871094 46.46875 43.007812 C 47.351562 43.265625 47.921875 43.851562 48.179688 44.742188 C 48.292969 45.152344 48.355469 45.566406 48.355469 45.992188 C 48.359375 46.832031 48.367188 47.671875 48.355469 48.511719 C 48.34375 49.164062 48.269531 49.808594 47.976562 50.410156 C 47.699219 50.980469 47.261719 51.355469 46.675781 51.558594 C 46.214844 51.71875 45.734375 51.785156 45.25 51.785156 C 44.0625 51.785156 42.875 51.785156 41.660156 51.785156 M 42.65625 46.660156 C 42.65625 47.660156 42.65625 48.660156 42.65625 49.683594 C 42.769531 49.683594 42.851562 49.683594 42.933594 49.683594 C 43.507812 49.683594 44.085938 49.683594 44.660156 49.679688 C 44.769531 49.679688 44.878906 49.679688 44.988281 49.660156 C 45.390625 49.585938 45.671875 49.363281 45.777344 48.957031 C 45.832031 48.753906 45.882812 48.542969 45.886719 48.335938 C 45.898438 47.582031 45.902344 46.824219 45.882812 46.070312 C 45.878906 45.84375 45.828125 45.613281 45.75 45.398438 C 45.667969 45.164062 45.484375 45.007812 45.230469 44.964844 C 45.078125 44.9375 44.921875 44.910156 44.769531 44.910156 C 44.140625 44.902344 43.507812 44.90625 42.878906 44.90625 C 42.808594 44.90625 42.738281 44.921875 42.65625 44.929688 C 42.65625 45.5 42.65625 46.050781 42.65625 46.660156 Z M 42.65625 46.660156 "/>
<path style=" stroke:none;fill-rule:nonzero;fill:rgb(26.274511%,26.666668%,26.274511%);fill-opacity:1;" d="M 17.550781 50.667969 C 17.550781 49.886719 17.550781 49.128906 17.546875 48.375 C 17.546875 48.355469 17.542969 48.339844 17.535156 48.300781 C 16.539062 48.300781 15.542969 48.300781 14.519531 48.300781 C 14.519531 49.453125 14.519531 50.601562 14.519531 51.765625 C 13.707031 51.765625 12.921875 51.765625 12.117188 51.765625 C 12.117188 48.785156 12.117188 45.8125 12.117188 42.824219 C 12.910156 42.824219 13.699219 42.824219 14.507812 42.824219 C 14.507812 43.929688 14.507812 45.035156 14.507812 46.128906 C 14.71875 46.191406 17.207031 46.203125 17.546875 46.148438 C 17.546875 45.050781 17.546875 43.949219 17.546875 42.824219 C 18.355469 42.824219 19.144531 42.824219 19.945312 42.824219 C 19.945312 45.800781 19.945312 48.773438 19.945312 51.765625 C 19.160156 51.765625 18.371094 51.765625 17.550781 51.765625 C 17.550781 51.410156 17.550781 51.054688 17.550781 50.667969 Z M 17.550781 50.667969 "/>
<path style=" stroke:none;fill-rule:nonzero;fill:rgb(26.274511%,26.666668%,26.274511%);fill-opacity:1;" d="M 6.414062 49.5 C 6.207031 49.5 6.023438 49.5 5.808594 49.5 C 5.808594 50.257812 5.808594 51.007812 5.808594 51.769531 C 4.996094 51.769531 4.214844 51.769531 3.421875 51.769531 C 3.421875 48.785156 3.421875 45.8125 3.421875 42.820312 C 3.496094 42.816406 3.566406 42.804688 3.636719 42.804688 C 5.140625 42.804688 6.648438 42.800781 8.15625 42.808594 C 8.566406 42.808594 8.96875 42.871094 9.363281 43.007812 C 10.011719 43.226562 10.449219 43.664062 10.679688 44.3125 C 10.808594 44.683594 10.890625 45.070312 10.90625 45.46875 C 10.929688 46.210938 10.945312 46.957031 10.804688 47.695312 C 10.621094 48.667969 10.082031 49.226562 9.113281 49.386719 C 8.722656 49.453125 8.320312 49.480469 7.921875 49.496094 C 7.429688 49.511719 6.933594 49.5 6.414062 49.5 M 8.371094 45.316406 C 8.273438 45.09375 8.09375 44.980469 7.859375 44.949219 C 7.726562 44.933594 7.589844 44.910156 7.453125 44.910156 C 6.980469 44.902344 6.503906 44.90625 6.03125 44.90625 C 5.960938 44.90625 5.890625 44.917969 5.824219 44.921875 C 5.773438 45.375 5.792969 47.183594 5.855469 47.417969 C 6.519531 47.394531 7.191406 47.382812 7.863281 47.34375 C 8.207031 47.324219 8.386719 47.160156 8.421875 46.8125 C 8.46875 46.328125 8.5 45.839844 8.371094 45.316406 Z M 8.371094 45.316406 "/>
<path style=" stroke:none;fill-rule:nonzero;fill:rgb(26.274511%,26.666668%,26.274511%);fill-opacity:1;" d="M 49.214844 50.382812 C 49.820312 48.335938 50.417969 46.308594 51.019531 44.285156 C 51.121094 43.941406 51.257812 43.609375 51.472656 43.320312 C 51.742188 42.953125 52.101562 42.773438 52.550781 42.769531 C 52.988281 42.765625 53.429688 42.78125 53.867188 42.765625 C 54.507812 42.742188 54.957031 43.046875 55.222656 43.605469 C 55.402344 43.984375 55.535156 44.390625 55.652344 44.792969 C 56.261719 46.835938 56.859375 48.878906 57.460938 50.921875 C 57.535156 51.175781 57.601562 51.433594 57.675781 51.710938 C 56.863281 51.710938 56.066406 51.710938 55.246094 51.710938 C 55.109375 51.226562 54.972656 50.734375 54.832031 50.230469 C 53.777344 50.230469 52.742188 50.230469 51.691406 50.230469 C 51.550781 50.722656 51.410156 51.21875 51.269531 51.714844 C 50.453125 51.714844 49.65625 51.714844 48.835938 51.714844 C 48.964844 51.265625 49.085938 50.835938 49.214844 50.382812 M 52.46875 47.167969 C 52.378906 47.585938 52.292969 48.003906 52.203125 48.433594 C 52.914062 48.433594 53.605469 48.433594 54.300781 48.433594 C 54.300781 48.390625 54.300781 48.363281 54.296875 48.339844 C 54.164062 47.726562 54.035156 47.117188 53.902344 46.507812 C 53.789062 45.96875 53.671875 45.429688 53.550781 44.894531 C 53.503906 44.671875 53.339844 44.585938 53.144531 44.664062 C 53.019531 44.714844 52.980469 44.816406 52.953125 44.945312 C 52.796875 45.671875 52.632812 46.394531 52.46875 47.167969 Z M 52.46875 47.167969 "/>
<path style=" stroke:none;fill-rule:nonzero;fill:rgb(26.274511%,26.666668%,26.274511%);fill-opacity:1;" d="M 21.328125 51.785156 C 21.15625 51.785156 21.011719 51.785156 20.832031 51.785156 C 20.941406 51.398438 21.046875 51.042969 21.152344 50.6875 C 21.773438 48.582031 22.394531 46.476562 23.019531 44.375 C 23.121094 44.027344 23.25 43.695312 23.453125 43.398438 C 23.710938 43.023438 24.066406 42.820312 24.515625 42.808594 C 25.015625 42.796875 25.519531 42.796875 26.019531 42.808594 C 26.46875 42.816406 26.824219 43.019531 27.082031 43.390625 C 27.3125 43.71875 27.449219 44.089844 27.5625 44.46875 C 28.253906 46.820312 28.949219 49.171875 29.640625 51.523438 C 29.664062 51.597656 29.675781 51.679688 29.699219 51.773438 C 28.878906 51.773438 28.078125 51.773438 27.265625 51.773438 C 27.121094 51.265625 26.980469 50.761719 26.835938 50.25 C 25.800781 50.25 24.769531 50.25 23.710938 50.25 C 23.570312 50.746094 23.425781 51.253906 23.273438 51.785156 C 22.628906 51.785156 21.992188 51.785156 21.328125 51.785156 M 25.382812 44.699219 C 25.070312 44.683594 25.03125 44.707031 24.964844 44.996094 C 24.808594 45.703125 24.660156 46.414062 24.507812 47.121094 C 24.410156 47.558594 24.316406 48 24.21875 48.449219 C 24.925781 48.449219 25.617188 48.449219 26.304688 48.449219 C 26.304688 48.40625 26.3125 48.378906 26.304688 48.351562 C 26.0625 47.222656 25.820312 46.09375 25.570312 44.964844 C 25.550781 44.875 25.472656 44.796875 25.382812 44.699219 Z M 25.382812 44.699219 "/>
<path style=" stroke:none;fill-rule:nonzero;fill:rgb(26.274511%,26.666668%,26.274511%);fill-opacity:1;" d="M 36.605469 44.90625 C 35.8125 44.90625 35.046875 44.90625 34.261719 44.90625 C 34.261719 47.199219 34.261719 49.46875 34.261719 51.773438 C 33.449219 51.800781 32.660156 51.777344 31.851562 51.785156 C 31.851562 49.496094 31.851562 47.226562 31.851562 44.925781 C 31.570312 44.890625 31.308594 44.910156 31.050781 44.90625 C 30.773438 44.90625 30.5 44.90625 30.226562 44.90625 C 29.964844 44.90625 29.699219 44.90625 29.4375 44.90625 C 29.378906 44.703125 29.363281 43.277344 29.414062 42.824219 C 31.859375 42.824219 34.3125 42.824219 36.78125 42.824219 C 36.785156 42.898438 36.789062 42.96875 36.789062 43.039062 C 36.792969 43.601562 36.789062 44.164062 36.792969 44.722656 C 36.792969 44.84375 36.777344 44.929688 36.605469 44.90625 Z M 36.605469 44.90625 "/>
<path style=" stroke:none;fill-rule:nonzero;fill:rgb(26.274511%,26.666668%,26.274511%);fill-opacity:1;" d="M 63.476562 44.90625 C 63.050781 44.90625 62.648438 44.90625 62.214844 44.90625 C 62.214844 47.199219 62.214844 49.476562 62.214844 51.769531 C 61.402344 51.769531 60.621094 51.769531 59.796875 51.769531 C 59.792969 51.402344 59.796875 51.03125 59.796875 50.65625 C 59.796875 50.269531 59.796875 49.882812 59.796875 49.496094 C 59.796875 49.117188 59.796875 48.742188 59.796875 48.363281 C 59.796875 47.984375 59.796875 47.609375 59.796875 47.230469 C 59.796875 46.84375 59.796875 46.457031 59.796875 46.070312 C 59.796875 45.691406 59.796875 45.316406 59.796875 44.914062 C 58.976562 44.914062 58.179688 44.914062 57.363281 44.914062 C 57.363281 44.207031 57.363281 43.527344 57.363281 42.851562 C 57.566406 42.789062 63.929688 42.761719 64.726562 42.820312 C 64.726562 43.503906 64.726562 44.1875 64.726562 44.90625 C 64.320312 44.90625 63.914062 44.90625 63.476562 44.90625 Z M 63.476562 44.90625 "/>
<path style=" stroke:none;fill-rule:nonzero;fill:rgb(27.450982%,27.843139%,27.450982%);fill-opacity:1;" d="M 38.417969 59.296875 C 38.417969 59.785156 38.417969 60.242188 38.417969 60.714844 C 38.191406 60.714844 37.996094 60.714844 37.777344 60.714844 C 37.777344 58.925781 37.777344 57.144531 37.777344 55.34375 C 38.050781 55.34375 38.332031 55.34375 38.621094 55.34375 C 39.523438 56.777344 40.433594 58.21875 41.34375 59.65625 C 41.359375 59.65625 41.371094 59.652344 41.386719 59.648438 C 41.386719 58.21875 41.386719 56.789062 41.386719 55.34375 C 41.617188 55.34375 41.820312 55.34375 42.039062 55.34375 C 42.039062 57.132812 42.039062 58.917969 42.039062 60.726562 C 41.785156 60.726562 41.539062 60.738281 41.296875 60.71875 C 41.234375 60.714844 41.167969 60.632812 41.128906 60.570312 C 40.644531 59.808594 40.164062 59.050781 39.6875 58.289062 C 39.304688 57.683594 38.925781 57.074219 38.542969 56.46875 C 38.519531 56.433594 38.492188 56.40625 38.417969 56.382812 C 38.417969 57.347656 38.417969 58.308594 38.417969 59.296875 Z M 38.417969 59.296875 "/>
<path style=" stroke:none;fill-rule:nonzero;fill:rgb(28.235295%,28.627452%,28.235295%);fill-opacity:1;" d="M 34.855469 58.570312 C 34.804688 58.988281 34.78125 59.382812 34.699219 59.765625 C 34.59375 60.242188 34.253906 60.511719 33.792969 60.617188 C 33.609375 60.660156 33.414062 60.683594 33.226562 60.6875 C 32.414062 60.707031 31.605469 60.714844 30.792969 60.726562 C 30.722656 60.730469 30.652344 60.726562 30.558594 60.726562 C 30.558594 58.929688 30.558594 57.148438 30.558594 55.339844 C 30.632812 55.335938 30.710938 55.324219 30.789062 55.324219 C 31.511719 55.324219 32.230469 55.3125 32.953125 55.328125 C 33.25 55.335938 33.550781 55.371094 33.84375 55.4375 C 34.34375 55.554688 34.648438 55.898438 34.738281 56.402344 C 34.804688 56.761719 34.832031 57.128906 34.851562 57.496094 C 34.871094 57.84375 34.855469 58.195312 34.855469 58.570312 M 32.75 55.972656 C 32.253906 55.972656 31.753906 55.972656 31.25 55.972656 C 31.25 57.355469 31.25 58.707031 31.25 60.066406 C 31.296875 60.070312 31.332031 60.078125 31.367188 60.078125 C 31.898438 60.082031 32.425781 60.085938 32.957031 60.078125 C 33.15625 60.074219 33.355469 60.042969 33.550781 60.011719 C 33.796875 59.972656 33.964844 59.828125 34.046875 59.585938 C 34.085938 59.464844 34.125 59.339844 34.136719 59.214844 C 34.210938 58.4375 34.222656 57.65625 34.136719 56.875 C 34.125 56.75 34.078125 56.628906 34.050781 56.503906 C 33.988281 56.242188 33.820312 56.078125 33.566406 56.035156 C 33.316406 55.996094 33.058594 55.992188 32.75 55.972656 Z M 32.75 55.972656 "/>
<path style=" stroke:none;fill-rule:nonzero;fill:rgb(27.843139%,28.235295%,27.843139%);fill-opacity:1;" d="M 45.554688 57.980469 C 46.144531 57.980469 46.710938 57.980469 47.292969 57.980469 C 47.300781 58.054688 47.316406 58.113281 47.316406 58.175781 C 47.296875 58.679688 47.300781 59.1875 47.246094 59.6875 C 47.191406 60.21875 46.867188 60.546875 46.347656 60.664062 C 46.179688 60.703125 46.003906 60.734375 45.835938 60.734375 C 45.34375 60.730469 44.851562 60.738281 44.363281 60.683594 C 43.554688 60.597656 43.304688 60.101562 43.207031 59.554688 C 43.074219 58.800781 43.050781 58.039062 43.128906 57.277344 C 43.152344 57.039062 43.15625 56.800781 43.191406 56.566406 C 43.304688 55.839844 43.675781 55.445312 44.394531 55.335938 C 45.035156 55.238281 45.683594 55.234375 46.320312 55.367188 C 46.902344 55.488281 47.191406 55.8125 47.246094 56.40625 C 47.265625 56.613281 47.25 56.828125 47.25 57.058594 C 47.042969 57.058594 46.839844 57.058594 46.601562 57.058594 C 46.601562 56.917969 46.605469 56.785156 46.601562 56.648438 C 46.582031 56.203125 46.453125 56.03125 46.011719 55.960938 C 45.503906 55.878906 44.996094 55.886719 44.488281 55.96875 C 44.171875 56.019531 43.976562 56.210938 43.90625 56.511719 C 43.84375 56.761719 43.800781 57.019531 43.796875 57.273438 C 43.785156 57.835938 43.792969 58.394531 43.8125 58.957031 C 43.820312 59.164062 43.863281 59.378906 43.925781 59.578125 C 44.015625 59.847656 44.210938 60.019531 44.5 60.070312 C 45.03125 60.164062 45.566406 60.152344 46.101562 60.070312 C 46.371094 60.027344 46.558594 59.867188 46.59375 59.589844 C 46.636719 59.265625 46.652344 58.933594 46.679688 58.574219 C 46.070312 58.574219 45.5 58.574219 44.917969 58.574219 C 44.917969 58.363281 44.917969 58.1875 44.917969 57.980469 C 45.128906 57.980469 45.328125 57.980469 45.554688 57.980469 Z M 45.554688 57.980469 "/>
<path style=" stroke:none;fill-rule:nonzero;fill:rgb(27.450982%,27.843139%,27.450982%);fill-opacity:1;" d="M 51.410156 60.632812 C 51.257812 60.667969 51.125 60.714844 50.992188 60.722656 C 50.382812 60.757812 49.769531 60.785156 49.164062 60.679688 C 48.636719 60.589844 48.339844 60.277344 48.285156 59.742188 C 48.257812 59.460938 48.25 59.175781 48.230469 58.867188 C 48.460938 58.867188 48.664062 58.867188 48.886719 58.867188 C 48.894531 58.929688 48.902344 59 48.90625 59.070312 C 48.910156 59.144531 48.90625 59.214844 48.90625 59.289062 C 48.921875 59.976562 49.113281 60.046875 49.601562 60.101562 C 50.0625 60.15625 50.527344 60.167969 50.988281 60.078125 C 51.304688 60.019531 51.433594 59.894531 51.464844 59.570312 C 51.484375 59.339844 51.484375 59.109375 51.472656 58.878906 C 51.460938 58.617188 51.351562 58.46875 51.085938 58.417969 C 50.730469 58.34375 50.367188 58.3125 50.007812 58.253906 C 49.6875 58.203125 49.359375 58.164062 49.046875 58.074219 C 48.613281 57.949219 48.386719 57.636719 48.332031 57.167969 C 48.289062 56.808594 48.316406 56.457031 48.390625 56.105469 C 48.46875 55.757812 48.691406 55.542969 49.007812 55.429688 C 49.164062 55.375 49.324219 55.332031 49.488281 55.324219 C 50.03125 55.296875 50.578125 55.261719 51.121094 55.363281 C 51.695312 55.46875 51.984375 55.792969 52.03125 56.371094 C 52.046875 56.613281 52.058594 56.859375 52.078125 57.117188 C 51.832031 57.117188 51.625 57.117188 51.378906 57.117188 C 51.375 57.007812 51.375 56.890625 51.371094 56.777344 C 51.367188 56.667969 51.363281 56.554688 51.355469 56.445312 C 51.335938 56.195312 51.195312 56.03125 50.957031 55.984375 C 50.4375 55.878906 49.910156 55.882812 49.386719 55.980469 C 49.160156 56.023438 49.03125 56.171875 49.015625 56.398438 C 49 56.628906 48.996094 56.859375 49.007812 57.089844 C 49.019531 57.300781 49.15625 57.425781 49.351562 57.46875 C 49.652344 57.535156 49.957031 57.578125 50.261719 57.628906 C 50.617188 57.6875 50.980469 57.722656 51.335938 57.800781 C 51.746094 57.886719 52.097656 58.160156 52.148438 58.738281 C 52.183594 59.136719 52.179688 59.523438 52.085938 59.910156 C 52 60.269531 51.785156 60.511719 51.410156 60.632812 Z M 51.410156 60.632812 "/>
<path style=" stroke:none;fill-rule:nonzero;fill:rgb(27.450982%,27.843139%,27.450982%);fill-opacity:1;" d="M 21.21875 56.984375 C 21.242188 56.65625 21.292969 56.359375 21.414062 56.078125 C 21.582031 55.691406 21.882812 55.472656 22.277344 55.382812 C 22.488281 55.335938 22.710938 55.308594 22.925781 55.308594 C 23.398438 55.3125 23.875 55.3125 24.34375 55.367188 C 25.074219 55.453125 25.367188 55.914062 25.476562 56.523438 C 25.527344 56.792969 25.53125 57.070312 25.554688 57.34375 C 25.566406 57.515625 25.597656 57.691406 25.585938 57.863281 C 25.5625 58.414062 25.539062 58.964844 25.476562 59.507812 C 25.453125 59.71875 25.359375 59.933594 25.253906 60.125 C 25.078125 60.4375 24.78125 60.613281 24.4375 60.671875 C 23.730469 60.789062 23.023438 60.792969 22.316406 60.667969 C 21.835938 60.585938 21.511719 60.296875 21.363281 59.824219 C 21.296875 59.625 21.242188 59.417969 21.226562 59.210938 C 21.195312 58.714844 21.179688 58.21875 21.171875 57.722656 C 21.167969 57.488281 21.199219 57.25 21.21875 56.984375 M 24.894531 58.109375 C 24.875 57.660156 24.871094 57.210938 24.832031 56.761719 C 24.789062 56.308594 24.574219 56.046875 24.1875 55.980469 C 23.648438 55.882812 23.101562 55.882812 22.5625 55.980469 C 22.253906 56.035156 22.054688 56.222656 21.976562 56.527344 C 21.933594 56.714844 21.890625 56.90625 21.886719 57.09375 C 21.867188 57.582031 21.851562 58.070312 21.867188 58.558594 C 21.878906 58.882812 21.921875 59.214844 21.992188 59.535156 C 22.058594 59.851562 22.285156 60.023438 22.609375 60.078125 C 23.042969 60.148438 23.480469 60.148438 23.914062 60.109375 C 24.132812 60.089844 24.367188 60.066406 24.550781 59.902344 C 24.734375 59.734375 24.804688 59.519531 24.828125 59.289062 C 24.863281 58.914062 24.875 58.539062 24.894531 58.109375 Z M 24.894531 58.109375 "/>
<path style=" stroke:none;fill-rule:nonzero;fill:rgb(27.843139%,28.235295%,27.843139%);fill-opacity:1;" d="M 16.675781 57.027344 C 16.675781 57.21875 16.675781 57.386719 16.675781 57.589844 C 17.605469 57.59375 18.519531 57.589844 19.457031 57.589844 C 19.457031 56.835938 19.457031 56.101562 19.457031 55.347656 C 19.683594 55.347656 19.886719 55.347656 20.109375 55.347656 C 20.109375 57.125 20.109375 58.910156 20.109375 60.726562 C 20.003906 60.726562 19.898438 60.726562 19.792969 60.726562 C 19.695312 60.726562 19.597656 60.726562 19.476562 60.726562 C 19.476562 59.894531 19.476562 59.085938 19.476562 58.257812 C 18.539062 58.257812 17.625 58.257812 16.675781 58.257812 C 16.675781 59.074219 16.675781 59.886719 16.675781 60.714844 C 16.445312 60.714844 16.25 60.714844 16.035156 60.714844 C 16.035156 58.925781 16.035156 57.144531 16.035156 55.34375 C 16.238281 55.34375 16.441406 55.34375 16.675781 55.34375 C 16.675781 55.898438 16.675781 56.449219 16.675781 57.027344 Z M 16.675781 57.027344 "/>
<path style=" stroke:none;fill-rule:nonzero;fill:rgb(27.843139%,28.235295%,27.843139%);fill-opacity:1;" d="M 27.355469 60.726562 C 27.109375 60.726562 26.890625 60.726562 26.675781 60.726562 C 26.617188 60.507812 26.59375 56.003906 26.644531 55.34375 C 26.847656 55.34375 27.050781 55.34375 27.285156 55.34375 C 27.285156 56.914062 27.285156 58.484375 27.285156 60.078125 C 28.140625 60.078125 28.96875 60.078125 29.8125 60.078125 C 29.8125 60.300781 29.8125 60.496094 29.8125 60.726562 C 29 60.726562 28.191406 60.726562 27.355469 60.726562 Z M 27.355469 60.726562 "/>
<path style=" stroke:none;fill-rule:nonzero;fill:rgb(29.019609%,29.411766%,29.019609%);fill-opacity:1;" d="M 36.609375 57.859375 C 36.609375 58.824219 36.609375 59.761719 36.609375 60.714844 C 36.367188 60.714844 36.15625 60.714844 35.925781 60.714844 C 35.925781 58.917969 35.925781 57.136719 35.925781 55.324219 C 36.046875 55.324219 36.152344 55.324219 36.261719 55.324219 C 36.367188 55.324219 36.476562 55.324219 36.609375 55.324219 C 36.609375 56.179688 36.609375 57.003906 36.609375 57.859375 Z M 36.609375 57.859375 "/>
<path style=" stroke:none;fill-rule:nonzero;fill:rgb(99.607843%,99.607843%,99.607843%);fill-opacity:1;" d="M 42.65625 46.632812 C 42.65625 46.050781 42.65625 45.5 42.65625 44.929688 C 42.738281 44.921875 42.808594 44.90625 42.878906 44.90625 C 43.507812 44.90625 44.140625 44.902344 44.769531 44.910156 C 44.921875 44.910156 45.078125 44.9375 45.230469 44.964844 C 45.484375 45.007812 45.667969 45.164062 45.75 45.398438 C 45.828125 45.613281 45.878906 45.84375 45.882812 46.070312 C 45.902344 46.824219 45.898438 47.582031 45.886719 48.335938 C 45.882812 48.542969 45.832031 48.753906 45.777344 48.957031 C 45.671875 49.363281 45.390625 49.585938 44.988281 49.660156 C 44.878906 49.679688 44.769531 49.679688 44.660156 49.679688 C 44.085938 49.683594 43.507812 49.683594 42.933594 49.683594 C 42.851562 49.683594 42.769531 49.683594 42.65625 49.683594 C 42.65625 48.660156 42.65625 47.660156 42.65625 46.632812 Z M 42.65625 46.632812 "/>
<path style=" stroke:none;fill-rule:nonzero;fill:rgb(99.607843%,99.607843%,99.607843%);fill-opacity:1;" d="M 8.378906 45.335938 C 8.5 45.839844 8.46875 46.328125 8.421875 46.8125 C 8.386719 47.160156 8.207031 47.324219 7.863281 47.34375 C 7.191406 47.382812 6.519531 47.394531 5.855469 47.417969 C 5.792969 47.183594 5.773438 45.375 5.824219 44.921875 C 5.890625 44.917969 5.960938 44.90625 6.03125 44.90625 C 6.503906 44.90625 6.980469 44.902344 7.453125 44.910156 C 7.589844 44.910156 7.726562 44.933594 7.859375 44.949219 C 8.09375 44.980469 8.273438 45.09375 8.378906 45.335938 Z M 8.378906 45.335938 "/>
<path style=" stroke:none;fill-rule:nonzero;fill:rgb(98.431373%,98.431373%,98.431373%);fill-opacity:1;" d="M 52.472656 47.144531 C 52.632812 46.394531 52.796875 45.671875 52.953125 44.945312 C 52.980469 44.816406 53.019531 44.714844 53.144531 44.664062 C 53.339844 44.585938 53.503906 44.671875 53.550781 44.894531 C 53.671875 45.429688 53.789062 45.96875 53.902344 46.507812 C 54.035156 47.117188 54.164062 47.726562 54.296875 48.339844 C 54.300781 48.363281 54.300781 48.390625 54.300781 48.433594 C 53.605469 48.433594 52.914062 48.433594 52.203125 48.433594 C 52.292969 48.003906 52.378906 47.585938 52.472656 47.144531 Z M 52.472656 47.144531 "/>
<path style=" stroke:none;fill-rule:nonzero;fill:rgb(99.215686%,99.215686%,99.215686%);fill-opacity:1;" d="M 25.402344 44.707031 C 25.472656 44.796875 25.550781 44.875 25.570312 44.964844 C 25.820312 46.09375 26.0625 47.222656 26.304688 48.351562 C 26.3125 48.378906 26.304688 48.40625 26.304688 48.449219 C 25.617188 48.449219 24.925781 48.449219 24.21875 48.449219 C 24.316406 48 24.410156 47.558594 24.507812 47.121094 C 24.660156 46.414062 24.808594 45.703125 24.964844 44.996094 C 25.03125 44.707031 25.070312 44.683594 25.402344 44.707031 Z M 25.402344 44.707031 "/>
<path style=" stroke:none;fill-rule:nonzero;fill:rgb(99.607843%,99.607843%,99.607843%);fill-opacity:1;" d="M 32.777344 55.972656 C 33.058594 55.992188 33.316406 55.996094 33.566406 56.035156 C 33.820312 56.078125 33.988281 56.242188 34.050781 56.503906 C 34.078125 56.628906 34.125 56.75 34.136719 56.875 C 34.222656 57.65625 34.210938 58.4375 34.136719 59.214844 C 34.125 59.339844 34.085938 59.464844 34.046875 59.585938 C 33.964844 59.828125 33.796875 59.972656 33.550781 60.011719 C 33.355469 60.042969 33.15625 60.074219 32.957031 60.078125 C 32.425781 60.085938 31.898438 60.082031 31.367188 60.078125 C 31.332031 60.078125 31.296875 60.070312 31.25 60.066406 C 31.25 58.707031 31.25 57.355469 31.25 55.972656 C 31.753906 55.972656 32.253906 55.972656 32.777344 55.972656 Z M 32.777344 55.972656 "/>
<path style=" stroke:none;fill-rule:nonzero;fill:rgb(99.607843%,99.607843%,99.607843%);fill-opacity:1;" d="M 24.894531 58.136719 C 24.875 58.539062 24.863281 58.914062 24.828125 59.289062 C 24.804688 59.519531 24.734375 59.734375 24.550781 59.902344 C 24.367188 60.066406 24.132812 60.089844 23.914062 60.109375 C 23.480469 60.148438 23.042969 60.148438 22.609375 60.078125 C 22.285156 60.023438 22.058594 59.851562 21.992188 59.535156 C 21.921875 59.214844 21.878906 58.882812 21.867188 58.558594 C 21.851562 58.070312 21.867188 57.582031 21.886719 57.09375 C 21.890625 56.90625 21.933594 56.714844 21.976562 56.527344 C 22.054688 56.222656 22.253906 56.035156 22.5625 55.980469 C 23.101562 55.882812 23.648438 55.882812 24.1875 55.980469 C 24.574219 56.046875 24.789062 56.308594 24.832031 56.761719 C 24.871094 57.210938 24.875 57.660156 24.894531 58.136719 Z M 24.894531 58.136719 "/>
</g>
</svg>
