<?xml version="1.0" encoding="UTF-8"?>
<svg xmlns="http://www.w3.org/2000/svg" xmlns:xlink="http://www.w3.org/1999/xlink" width="17px" height="16px" viewBox="0 0 17 16" version="1.1">
<g id="surface1">
<path style=" stroke:none;fill-rule:nonzero;fill:rgb(100%,100%,100%);fill-opacity:1;" d="M 9.6875 16.015625 C 6.460938 16.015625 3.238281 16.015625 0.015625 16.015625 C 0.015625 10.679688 0.015625 5.347656 0.015625 0.015625 C 5.683594 0.015625 11.351562 0.015625 17.019531 0.015625 C 17.019531 5.347656 17.019531 10.679688 17.019531 16.015625 C 14.578125 16.015625 12.136719 16.015625 9.6875 16.015625 M 5.46875 1.097656 C 5.238281 1.207031 5.027344 1.351562 4.84375 1.527344 C 4.539062 1.8125 4.3125 2.148438 4.164062 2.535156 C 4.050781 2.839844 3.984375 3.15625 3.984375 3.484375 C 3.984375 5.265625 3.984375 7.042969 3.984375 8.820312 C 3.984375 8.851562 3.984375 8.882812 3.984375 8.914062 C 4.421875 8.914062 4.851562 8.914062 5.289062 8.914062 C 5.289062 6.667969 5.289062 4.429688 5.289062 2.1875 C 5.324219 2.1875 5.347656 2.1875 5.371094 2.1875 C 5.742188 2.191406 6.109375 2.195312 6.480469 2.195312 C 7.5625 2.199219 8.644531 2.195312 9.730469 2.195312 C 9.753906 2.195312 9.78125 2.195312 9.808594 2.195312 C 9.808594 2.867188 9.808594 3.53125 9.808594 4.203125 C 9.78125 4.203125 9.753906 4.203125 9.730469 4.203125 C 9.105469 4.203125 8.476562 4.199219 7.851562 4.203125 C 7.765625 4.203125 7.679688 4.207031 7.59375 4.222656 C 7.136719 4.292969 6.75 4.503906 6.441406 4.851562 C 6.097656 5.238281 5.929688 5.695312 5.925781 6.207031 C 5.917969 7.089844 5.921875 7.972656 5.921875 8.855469 C 5.921875 8.875 5.925781 8.894531 5.925781 8.917969 C 5.960938 8.917969 5.988281 8.917969 6.015625 8.917969 C 7.480469 8.917969 8.941406 8.917969 10.40625 8.917969 C 10.566406 8.917969 10.726562 8.90625 10.882812 8.878906 C 11.382812 8.796875 11.816406 8.578125 12.191406 8.238281 C 12.449219 8 12.652344 7.71875 12.800781 7.398438 C 12.972656 7.035156 13.0625 6.65625 13.0625 6.257812 C 13.0625 4.472656 13.0625 2.683594 13.0625 0.898438 C 13.0625 0.882812 13.058594 0.863281 13.058594 0.847656 C 12.929688 0.832031 11.8125 0.839844 11.757812 0.855469 C 11.757812 3.085938 11.757812 5.320312 11.757812 7.558594 C 10.25 7.558594 8.746094 7.558594 7.238281 7.558594 C 7.238281 6.890625 7.238281 6.226562 7.238281 5.558594 C 7.265625 5.558594 7.292969 5.558594 7.316406 5.558594 C 7.914062 5.558594 8.507812 5.558594 9.105469 5.558594 C 9.246094 5.558594 9.386719 5.546875 9.527344 5.519531 C 9.921875 5.445312 10.257812 5.257812 10.539062 4.972656 C 10.710938 4.800781 10.84375 4.597656 10.941406 4.375 C 11.046875 4.132812 11.113281 3.875 11.113281 3.609375 C 11.117188 2.703125 11.117188 1.796875 11.117188 0.890625 C 11.117188 0.875 11.113281 0.859375 11.109375 0.839844 C 11.078125 0.839844 11.054688 0.839844 11.027344 0.839844 C 9.554688 0.839844 8.085938 0.839844 6.613281 0.84375 C 6.511719 0.84375 6.410156 0.847656 6.304688 0.855469 C 6.015625 0.882812 5.738281 0.964844 5.46875 1.097656 M 10.421875 12.945312 C 10.71875 12.945312 11.015625 12.945312 11.3125 12.945312 C 11.433594 12.945312 11.554688 12.929688 11.667969 12.890625 C 11.816406 12.839844 11.925781 12.746094 11.992188 12.601562 C 12.066406 12.453125 12.085938 12.292969 12.089844 12.128906 C 12.09375 11.917969 12.089844 11.707031 12.089844 11.5 C 12.089844 11.390625 12.074219 11.289062 12.042969 11.1875 C 11.980469 10.960938 11.839844 10.816406 11.617188 10.75 C 11.503906 10.71875 11.386719 10.703125 11.265625 10.703125 C 10.890625 10.699219 10.511719 10.703125 10.136719 10.703125 C 10.117188 10.703125 10.097656 10.703125 10.074219 10.703125 C 10.074219 11.453125 10.074219 12.199219 10.074219 12.945312 C 10.191406 12.945312 10.300781 12.945312 10.421875 12.945312 M 4.386719 12.675781 C 4.386719 12.761719 4.386719 12.851562 4.386719 12.941406 C 4.59375 12.941406 4.789062 12.941406 4.988281 12.941406 C 4.988281 12.191406 4.988281 11.449219 4.988281 10.707031 C 4.785156 10.707031 4.589844 10.707031 4.386719 10.707031 C 4.386719 10.988281 4.386719 11.261719 4.386719 11.535156 C 4.300781 11.550781 3.679688 11.546875 3.628906 11.53125 C 3.628906 11.257812 3.628906 10.984375 3.628906 10.707031 C 3.425781 10.707031 3.226562 10.707031 3.03125 10.707031 C 3.03125 11.453125 3.03125 12.195312 3.03125 12.941406 C 3.230469 12.941406 3.425781 12.941406 3.628906 12.941406 C 3.628906 12.648438 3.628906 12.363281 3.628906 12.074219 C 3.886719 12.074219 4.136719 12.074219 4.382812 12.074219 C 4.386719 12.085938 4.386719 12.089844 4.386719 12.09375 C 4.386719 12.28125 4.386719 12.472656 4.386719 12.675781 M 1.609375 12.375 C 1.734375 12.375 1.855469 12.378906 1.980469 12.375 C 2.078125 12.371094 2.179688 12.363281 2.277344 12.347656 C 2.519531 12.308594 2.65625 12.167969 2.703125 11.921875 C 2.738281 11.738281 2.730469 11.554688 2.726562 11.367188 C 2.722656 11.269531 2.703125 11.171875 2.667969 11.078125 C 2.613281 10.914062 2.503906 10.808594 2.339844 10.75 C 2.242188 10.71875 2.140625 10.703125 2.039062 10.703125 C 1.664062 10.699219 1.285156 10.699219 0.910156 10.703125 C 0.890625 10.703125 0.875 10.703125 0.855469 10.707031 C 0.855469 11.453125 0.855469 12.195312 0.855469 12.941406 C 1.054688 12.941406 1.25 12.941406 1.453125 12.941406 C 1.453125 12.753906 1.453125 12.566406 1.453125 12.375 C 1.503906 12.375 1.550781 12.375 1.609375 12.375 M 12.304688 12.601562 C 12.273438 12.707031 12.242188 12.816406 12.207031 12.929688 C 12.414062 12.929688 12.613281 12.929688 12.816406 12.929688 C 12.851562 12.804688 12.886719 12.679688 12.921875 12.558594 C 13.183594 12.558594 13.445312 12.558594 13.707031 12.558594 C 13.742188 12.683594 13.777344 12.804688 13.8125 12.925781 C 14.015625 12.925781 14.214844 12.925781 14.417969 12.925781 C 14.398438 12.859375 14.382812 12.792969 14.363281 12.730469 C 14.214844 12.21875 14.066406 11.707031 13.914062 11.199219 C 13.882812 11.097656 13.851562 10.996094 13.804688 10.902344 C 13.738281 10.761719 13.628906 10.6875 13.464844 10.691406 C 13.355469 10.695312 13.246094 10.691406 13.136719 10.691406 C 13.027344 10.691406 12.933594 10.738281 12.867188 10.828125 C 12.8125 10.902344 12.78125 10.984375 12.753906 11.070312 C 12.605469 11.578125 12.457031 12.082031 12.304688 12.601562 M 5.339844 12.945312 C 5.5 12.945312 5.65625 12.945312 5.820312 12.945312 C 5.855469 12.8125 5.890625 12.6875 5.925781 12.5625 C 6.191406 12.5625 6.449219 12.5625 6.707031 12.5625 C 6.746094 12.691406 6.78125 12.816406 6.816406 12.941406 C 7.019531 12.941406 7.21875 12.941406 7.425781 12.941406 C 7.417969 12.917969 7.417969 12.898438 7.410156 12.878906 C 7.238281 12.292969 7.0625 11.703125 6.890625 11.117188 C 6.863281 11.023438 6.828125 10.929688 6.769531 10.847656 C 6.707031 10.753906 6.617188 10.703125 6.503906 10.703125 C 6.378906 10.699219 6.253906 10.699219 6.128906 10.703125 C 6.015625 10.707031 5.929688 10.753906 5.863281 10.847656 C 5.8125 10.925781 5.78125 11.007812 5.753906 11.09375 C 5.597656 11.621094 5.445312 12.144531 5.289062 12.671875 C 5.261719 12.761719 5.234375 12.851562 5.207031 12.945312 C 5.253906 12.945312 5.289062 12.945312 5.339844 12.945312 M 9.15625 11.226562 C 9.195312 11.230469 9.199219 11.210938 9.199219 11.179688 C 9.199219 11.039062 9.199219 10.898438 9.199219 10.757812 C 9.199219 10.742188 9.195312 10.722656 9.195312 10.707031 C 8.578125 10.707031 7.964844 10.707031 7.351562 10.707031 C 7.339844 10.820312 7.34375 11.175781 7.359375 11.226562 C 7.425781 11.226562 7.492188 11.226562 7.558594 11.226562 C 7.625 11.226562 7.695312 11.226562 7.761719 11.226562 C 7.828125 11.226562 7.894531 11.222656 7.960938 11.230469 C 7.960938 11.804688 7.960938 12.375 7.960938 12.945312 C 8.164062 12.945312 8.363281 12.949219 8.566406 12.941406 C 8.566406 12.367188 8.566406 11.800781 8.566406 11.226562 C 8.761719 11.226562 8.953125 11.226562 9.15625 11.226562 M 15.875 11.226562 C 15.976562 11.226562 16.082031 11.226562 16.183594 11.226562 C 16.183594 11.046875 16.183594 10.875 16.183594 10.703125 C 15.984375 10.691406 14.390625 10.695312 14.339844 10.710938 C 14.339844 10.882812 14.339844 11.050781 14.339844 11.226562 C 14.542969 11.226562 14.742188 11.226562 14.949219 11.226562 C 14.949219 11.328125 14.949219 11.421875 14.949219 11.515625 C 14.949219 11.613281 14.949219 11.710938 14.949219 11.808594 C 14.949219 11.902344 14.949219 11.996094 14.949219 12.089844 C 14.949219 12.183594 14.949219 12.28125 14.949219 12.375 C 14.949219 12.472656 14.949219 12.566406 14.949219 12.664062 C 14.949219 12.757812 14.949219 12.851562 14.949219 12.941406 C 15.15625 12.941406 15.351562 12.941406 15.554688 12.941406 C 15.554688 12.367188 15.554688 11.800781 15.554688 11.226562 C 15.660156 11.226562 15.761719 11.226562 15.875 11.226562 M 9.605469 14.816406 C 9.605469 14.578125 9.605469 14.335938 9.605469 14.097656 C 9.621094 14.101562 9.628906 14.109375 9.636719 14.117188 C 9.730469 14.269531 9.824219 14.421875 9.921875 14.570312 C 10.042969 14.761719 10.160156 14.953125 10.28125 15.140625 C 10.292969 15.15625 10.308594 15.179688 10.324219 15.179688 C 10.386719 15.183594 10.445312 15.183594 10.511719 15.183594 C 10.511719 14.730469 10.511719 14.285156 10.511719 13.835938 C 10.457031 13.835938 10.40625 13.835938 10.347656 13.835938 C 10.347656 14.199219 10.347656 14.554688 10.347656 14.910156 C 10.34375 14.914062 10.339844 14.914062 10.335938 14.914062 C 10.109375 14.554688 9.882812 14.195312 9.65625 13.835938 C 9.582031 13.835938 9.511719 13.835938 9.445312 13.835938 C 9.445312 14.285156 9.445312 14.730469 9.445312 15.179688 C 9.5 15.179688 9.546875 15.179688 9.605469 15.179688 C 9.605469 15.058594 9.605469 14.945312 9.605469 14.816406 M 8.714844 14.636719 C 8.714844 14.546875 8.71875 14.460938 8.714844 14.375 C 8.707031 14.28125 8.703125 14.191406 8.683594 14.101562 C 8.660156 13.976562 8.585938 13.886719 8.460938 13.859375 C 8.386719 13.84375 8.3125 13.832031 8.238281 13.832031 C 8.058594 13.828125 7.878906 13.832031 7.699219 13.832031 C 7.679688 13.832031 7.660156 13.832031 7.640625 13.835938 C 7.640625 14.285156 7.640625 14.730469 7.640625 15.183594 C 7.664062 15.183594 7.679688 15.183594 7.699219 15.183594 C 7.902344 15.179688 8.105469 15.175781 8.304688 15.171875 C 8.355469 15.171875 8.402344 15.164062 8.449219 15.152344 C 8.5625 15.128906 8.648438 15.0625 8.675781 14.941406 C 8.695312 14.84375 8.703125 14.746094 8.714844 14.636719 M 11.382812 14.496094 C 11.332031 14.496094 11.28125 14.496094 11.230469 14.496094 C 11.230469 14.546875 11.230469 14.589844 11.230469 14.644531 C 11.375 14.644531 11.519531 14.644531 11.671875 14.644531 C 11.664062 14.734375 11.660156 14.816406 11.648438 14.898438 C 11.640625 14.96875 11.59375 15.007812 11.523438 15.019531 C 11.390625 15.039062 11.257812 15.042969 11.125 15.019531 C 11.050781 15.003906 11.003906 14.960938 10.980469 14.894531 C 10.964844 14.84375 10.957031 14.792969 10.953125 14.738281 C 10.949219 14.597656 10.945312 14.457031 10.949219 14.316406 C 10.949219 14.253906 10.960938 14.191406 10.976562 14.128906 C 10.996094 14.054688 11.042969 14.003906 11.121094 13.992188 C 11.25 13.972656 11.375 13.96875 11.503906 13.992188 C 11.613281 14.007812 11.644531 14.050781 11.648438 14.160156 C 11.652344 14.195312 11.652344 14.230469 11.652344 14.265625 C 11.710938 14.265625 11.761719 14.265625 11.8125 14.265625 C 11.8125 14.207031 11.816406 14.152344 11.8125 14.101562 C 11.796875 13.953125 11.726562 13.871094 11.582031 13.84375 C 11.421875 13.808594 11.257812 13.808594 11.097656 13.832031 C 10.917969 13.859375 10.824219 13.960938 10.796875 14.140625 C 10.789062 14.199219 10.789062 14.261719 10.78125 14.320312 C 10.761719 14.511719 10.769531 14.699219 10.800781 14.886719 C 10.824219 15.027344 10.886719 15.148438 11.089844 15.171875 C 11.210938 15.183594 11.335938 15.183594 11.457031 15.183594 C 11.5 15.183594 11.542969 15.175781 11.585938 15.167969 C 11.714844 15.136719 11.796875 15.054688 11.8125 14.921875 C 11.824219 14.796875 11.824219 14.667969 11.828125 14.542969 C 11.828125 14.527344 11.824219 14.511719 11.824219 14.496094 C 11.675781 14.496094 11.535156 14.496094 11.382812 14.496094 M 12.859375 15.15625 C 12.945312 15.128906 13 15.066406 13.023438 14.976562 C 13.042969 14.882812 13.046875 14.785156 13.039062 14.683594 C 13.023438 14.539062 12.9375 14.472656 12.832031 14.449219 C 12.746094 14.429688 12.65625 14.421875 12.566406 14.40625 C 12.488281 14.394531 12.414062 14.382812 12.335938 14.367188 C 12.289062 14.355469 12.253906 14.324219 12.253906 14.273438 C 12.25 14.214844 12.25 14.15625 12.253906 14.101562 C 12.257812 14.042969 12.289062 14.007812 12.347656 13.996094 C 12.476562 13.96875 12.609375 13.96875 12.738281 13.996094 C 12.800781 14.007812 12.835938 14.046875 12.839844 14.113281 C 12.839844 14.140625 12.84375 14.167969 12.84375 14.195312 C 12.84375 14.222656 12.84375 14.25 12.84375 14.28125 C 12.90625 14.28125 12.957031 14.28125 13.019531 14.28125 C 13.015625 14.214844 13.011719 14.152344 13.007812 14.09375 C 12.996094 13.949219 12.921875 13.867188 12.78125 13.839844 C 12.644531 13.816406 12.507812 13.824219 12.371094 13.832031 C 12.332031 13.832031 12.289062 13.84375 12.253906 13.859375 C 12.171875 13.886719 12.117188 13.941406 12.097656 14.027344 C 12.078125 14.113281 12.074219 14.203125 12.082031 14.292969 C 12.097656 14.410156 12.152344 14.488281 12.261719 14.519531 C 12.339844 14.542969 12.421875 14.550781 12.503906 14.5625 C 12.59375 14.578125 12.683594 14.585938 12.769531 14.605469 C 12.835938 14.617188 12.863281 14.652344 12.867188 14.71875 C 12.871094 14.777344 12.871094 14.835938 12.867188 14.890625 C 12.859375 14.972656 12.828125 15.003906 12.746094 15.019531 C 12.632812 15.042969 12.515625 15.039062 12.398438 15.027344 C 12.277344 15.011719 12.230469 14.996094 12.226562 14.824219 C 12.226562 14.804688 12.226562 14.785156 12.226562 14.765625 C 12.226562 14.75 12.222656 14.730469 12.222656 14.71875 C 12.167969 14.71875 12.117188 14.71875 12.058594 14.71875 C 12.0625 14.792969 12.066406 14.863281 12.070312 14.933594 C 12.085938 15.070312 12.160156 15.148438 12.292969 15.171875 C 12.441406 15.195312 12.59375 15.1875 12.746094 15.179688 C 12.78125 15.179688 12.8125 15.167969 12.859375 15.15625 M 5.304688 14.253906 C 5.300781 14.3125 5.292969 14.371094 5.292969 14.429688 C 5.292969 14.554688 5.296875 14.679688 5.308594 14.800781 C 5.3125 14.855469 5.324219 14.90625 5.339844 14.957031 C 5.378906 15.074219 5.460938 15.148438 5.578125 15.167969 C 5.753906 15.199219 5.933594 15.199219 6.109375 15.167969 C 6.195312 15.152344 6.269531 15.109375 6.3125 15.03125 C 6.339844 14.984375 6.363281 14.929688 6.371094 14.878906 C 6.382812 14.742188 6.390625 14.601562 6.398438 14.464844 C 6.398438 14.421875 6.390625 14.378906 6.386719 14.335938 C 6.382812 14.265625 6.382812 14.199219 6.371094 14.128906 C 6.339844 13.980469 6.269531 13.863281 6.085938 13.839844 C 5.96875 13.828125 5.851562 13.828125 5.730469 13.828125 C 5.675781 13.828125 5.621094 13.835938 5.570312 13.847656 C 5.46875 13.867188 5.394531 13.921875 5.355469 14.019531 C 5.324219 14.089844 5.308594 14.164062 5.304688 14.253906 M 4.167969 14.25 C 4.167969 14.113281 4.167969 13.976562 4.167969 13.835938 C 4.109375 13.835938 4.058594 13.835938 4.007812 13.835938 C 4.007812 14.285156 4.007812 14.730469 4.007812 15.179688 C 4.0625 15.179688 4.113281 15.179688 4.167969 15.179688 C 4.167969 14.972656 4.167969 14.769531 4.167969 14.566406 C 4.40625 14.566406 4.636719 14.566406 4.871094 14.566406 C 4.871094 14.773438 4.871094 14.972656 4.871094 15.183594 C 4.898438 15.183594 4.921875 15.183594 4.949219 15.183594 C 4.976562 15.183594 5 15.183594 5.027344 15.183594 C 5.027344 14.726562 5.027344 14.28125 5.027344 13.835938 C 4.972656 13.835938 4.921875 13.835938 4.863281 13.835938 C 4.863281 14.027344 4.863281 14.210938 4.863281 14.398438 C 4.628906 14.398438 4.402344 14.398438 4.167969 14.398438 C 4.167969 14.347656 4.167969 14.304688 4.167969 14.25 M 6.84375 15.183594 C 7.046875 15.183594 7.25 15.183594 7.453125 15.183594 C 7.453125 15.125 7.453125 15.074219 7.453125 15.019531 C 7.242188 15.019531 7.035156 15.019531 6.820312 15.019531 C 6.820312 14.621094 6.820312 14.230469 6.820312 13.835938 C 6.761719 13.835938 6.710938 13.835938 6.660156 13.835938 C 6.648438 14 6.65625 15.125 6.667969 15.183594 C 6.722656 15.183594 6.777344 15.183594 6.84375 15.183594 M 9.152344 14.457031 C 9.152344 14.25 9.152344 14.042969 9.152344 13.832031 C 9.117188 13.832031 9.09375 13.832031 9.066406 13.832031 C 9.039062 13.832031 9.011719 13.832031 8.980469 13.832031 C 8.980469 14.285156 8.980469 14.730469 8.980469 15.179688 C 9.039062 15.179688 9.09375 15.179688 9.152344 15.179688 C 9.152344 14.941406 9.152344 14.707031 9.152344 14.457031 Z M 9.152344 14.457031 "/>
<path style=" stroke:none;fill-rule:nonzero;fill:rgb(91.764706%,13.725491%,16.862746%);fill-opacity:1;" d="M 5.472656 1.09375 C 5.738281 0.964844 6.015625 0.882812 6.304688 0.855469 C 6.410156 0.847656 6.511719 0.84375 6.613281 0.84375 C 8.085938 0.839844 9.554688 0.839844 11.027344 0.839844 C 11.054688 0.839844 11.078125 0.839844 11.109375 0.839844 C 11.113281 0.859375 11.117188 0.875 11.117188 0.890625 C 11.117188 1.796875 11.117188 2.703125 11.113281 3.609375 C 11.113281 3.875 11.046875 4.132812 10.941406 4.375 C 10.84375 4.597656 10.710938 4.800781 10.539062 4.972656 C 10.257812 5.257812 9.921875 5.445312 9.527344 5.519531 C 9.386719 5.546875 9.246094 5.558594 9.105469 5.558594 C 8.507812 5.558594 7.914062 5.558594 7.316406 5.558594 C 7.292969 5.558594 7.265625 5.558594 7.238281 5.558594 C 7.238281 6.226562 7.238281 6.890625 7.238281 7.558594 C 8.746094 7.558594 10.25 7.558594 11.757812 7.558594 C 11.757812 5.320312 11.757812 3.085938 11.757812 0.855469 C 11.8125 0.839844 12.929688 0.832031 13.058594 0.847656 C 13.058594 0.863281 13.0625 0.882812 13.0625 0.898438 C 13.0625 2.683594 13.0625 4.472656 13.0625 6.257812 C 13.0625 6.65625 12.972656 7.035156 12.800781 7.398438 C 12.652344 7.71875 12.449219 8 12.191406 8.238281 C 11.816406 8.578125 11.382812 8.796875 10.882812 8.878906 C 10.726562 8.90625 10.566406 8.917969 10.40625 8.917969 C 8.941406 8.917969 7.480469 8.917969 6.015625 8.917969 C 5.988281 8.917969 5.960938 8.917969 5.925781 8.917969 C 5.925781 8.894531 5.921875 8.875 5.921875 8.855469 C 5.921875 7.972656 5.917969 7.089844 5.925781 6.207031 C 5.929688 5.695312 6.097656 5.238281 6.441406 4.851562 C 6.75 4.503906 7.136719 4.292969 7.59375 4.222656 C 7.679688 4.207031 7.765625 4.203125 7.851562 4.203125 C 8.476562 4.199219 9.105469 4.203125 9.730469 4.203125 C 9.753906 4.203125 9.78125 4.203125 9.808594 4.203125 C 9.808594 3.53125 9.808594 2.867188 9.808594 2.195312 C 9.78125 2.195312 9.753906 2.195312 9.730469 2.195312 C 8.644531 2.195312 7.5625 2.199219 6.480469 2.195312 C 6.109375 2.195312 5.742188 2.191406 5.371094 2.1875 C 5.347656 2.1875 5.324219 2.1875 5.289062 2.1875 C 5.289062 4.429688 5.289062 6.667969 5.289062 8.914062 C 4.851562 8.914062 4.421875 8.914062 3.984375 8.914062 C 3.984375 8.882812 3.984375 8.851562 3.984375 8.820312 C 3.984375 7.042969 3.984375 5.265625 3.984375 3.484375 C 3.984375 3.15625 4.050781 2.839844 4.164062 2.535156 C 4.3125 2.148438 4.539062 1.8125 4.84375 1.527344 C 5.027344 1.351562 5.238281 1.207031 5.472656 1.09375 Z M 5.472656 1.09375 "/>
<path style=" stroke:none;fill-rule:nonzero;fill:rgb(26.274511%,26.666668%,26.274511%);fill-opacity:1;" d="M 10.414062 12.945312 C 10.300781 12.945312 10.191406 12.945312 10.074219 12.945312 C 10.074219 12.199219 10.074219 11.453125 10.074219 10.703125 C 10.097656 10.703125 10.117188 10.703125 10.136719 10.703125 C 10.511719 10.703125 10.890625 10.699219 11.265625 10.703125 C 11.386719 10.703125 11.503906 10.71875 11.617188 10.75 C 11.839844 10.816406 11.980469 10.960938 12.042969 11.1875 C 12.074219 11.289062 12.089844 11.390625 12.089844 11.5 C 12.089844 11.707031 12.09375 11.917969 12.089844 12.128906 C 12.085938 12.292969 12.066406 12.453125 11.992188 12.601562 C 11.925781 12.746094 11.816406 12.839844 11.667969 12.890625 C 11.554688 12.929688 11.433594 12.945312 11.3125 12.945312 C 11.015625 12.945312 10.71875 12.945312 10.414062 12.945312 M 10.664062 11.664062 C 10.664062 11.914062 10.664062 12.164062 10.664062 12.421875 C 10.691406 12.421875 10.714844 12.421875 10.734375 12.421875 C 10.878906 12.421875 11.019531 12.421875 11.164062 12.421875 C 11.191406 12.421875 11.21875 12.417969 11.246094 12.414062 C 11.347656 12.398438 11.417969 12.339844 11.445312 12.238281 C 11.457031 12.1875 11.46875 12.136719 11.472656 12.085938 C 11.472656 11.894531 11.476562 11.707031 11.472656 11.515625 C 11.46875 11.460938 11.457031 11.402344 11.4375 11.351562 C 11.417969 11.292969 11.371094 11.25 11.308594 11.242188 C 11.269531 11.234375 11.230469 11.226562 11.191406 11.226562 C 11.035156 11.226562 10.878906 11.226562 10.71875 11.226562 C 10.703125 11.226562 10.683594 11.230469 10.664062 11.230469 C 10.664062 11.375 10.664062 11.511719 10.664062 11.664062 Z M 10.664062 11.664062 "/>
<path style=" stroke:none;fill-rule:nonzero;fill:rgb(26.274511%,26.666668%,26.274511%);fill-opacity:1;" d="M 4.386719 12.667969 C 4.386719 12.472656 4.386719 12.28125 4.386719 12.09375 C 4.386719 12.089844 4.386719 12.085938 4.382812 12.074219 C 4.136719 12.074219 3.886719 12.074219 3.628906 12.074219 C 3.628906 12.363281 3.628906 12.648438 3.628906 12.941406 C 3.425781 12.941406 3.230469 12.941406 3.03125 12.941406 C 3.03125 12.195312 3.03125 11.453125 3.03125 10.707031 C 3.226562 10.707031 3.425781 10.707031 3.628906 10.707031 C 3.628906 10.984375 3.628906 11.257812 3.628906 11.53125 C 3.679688 11.546875 4.300781 11.550781 4.386719 11.535156 C 4.386719 11.261719 4.386719 10.988281 4.386719 10.707031 C 4.589844 10.707031 4.785156 10.707031 4.988281 10.707031 C 4.988281 11.449219 4.988281 12.191406 4.988281 12.941406 C 4.789062 12.941406 4.59375 12.941406 4.386719 12.941406 C 4.386719 12.851562 4.386719 12.761719 4.386719 12.667969 Z M 4.386719 12.667969 "/>
<path style=" stroke:none;fill-rule:nonzero;fill:rgb(26.274511%,26.666668%,26.274511%);fill-opacity:1;" d="M 1.605469 12.375 C 1.550781 12.375 1.503906 12.375 1.453125 12.375 C 1.453125 12.566406 1.453125 12.753906 1.453125 12.941406 C 1.25 12.941406 1.054688 12.941406 0.855469 12.941406 C 0.855469 12.195312 0.855469 11.453125 0.855469 10.707031 C 0.875 10.703125 0.890625 10.703125 0.910156 10.703125 C 1.285156 10.699219 1.664062 10.699219 2.039062 10.703125 C 2.140625 10.703125 2.242188 10.71875 2.339844 10.75 C 2.503906 10.808594 2.613281 10.914062 2.667969 11.078125 C 2.703125 11.171875 2.722656 11.269531 2.726562 11.367188 C 2.730469 11.554688 2.738281 11.738281 2.703125 11.921875 C 2.65625 12.167969 2.519531 12.308594 2.277344 12.347656 C 2.179688 12.363281 2.078125 12.371094 1.980469 12.375 C 1.855469 12.378906 1.734375 12.375 1.605469 12.375 M 2.09375 11.328125 C 2.066406 11.273438 2.023438 11.246094 1.964844 11.238281 C 1.929688 11.234375 1.898438 11.226562 1.863281 11.226562 C 1.746094 11.226562 1.625 11.226562 1.507812 11.226562 C 1.488281 11.226562 1.472656 11.230469 1.457031 11.230469 C 1.445312 11.34375 1.449219 11.796875 1.464844 11.855469 C 1.628906 11.847656 1.796875 11.84375 1.964844 11.835938 C 2.050781 11.832031 2.097656 11.789062 2.105469 11.703125 C 2.117188 11.582031 2.125 11.460938 2.09375 11.328125 Z M 2.09375 11.328125 "/>
<path style=" stroke:none;fill-rule:nonzero;fill:rgb(26.274511%,26.666668%,26.274511%);fill-opacity:1;" d="M 12.304688 12.59375 C 12.457031 12.082031 12.605469 11.578125 12.753906 11.070312 C 12.78125 10.984375 12.8125 10.902344 12.867188 10.828125 C 12.933594 10.738281 13.027344 10.691406 13.136719 10.691406 C 13.246094 10.691406 13.355469 10.695312 13.464844 10.691406 C 13.628906 10.6875 13.738281 10.761719 13.804688 10.902344 C 13.851562 10.996094 13.882812 11.097656 13.914062 11.199219 C 14.066406 11.707031 14.214844 12.21875 14.363281 12.730469 C 14.382812 12.792969 14.398438 12.859375 14.417969 12.925781 C 14.214844 12.925781 14.015625 12.925781 13.8125 12.925781 C 13.777344 12.804688 13.742188 12.683594 13.707031 12.558594 C 13.445312 12.558594 13.183594 12.558594 12.921875 12.558594 C 12.886719 12.679688 12.851562 12.804688 12.816406 12.929688 C 12.613281 12.929688 12.414062 12.929688 12.207031 12.929688 C 12.242188 12.816406 12.273438 12.707031 12.304688 12.59375 M 13.117188 11.792969 C 13.09375 11.898438 13.074219 12 13.050781 12.109375 C 13.230469 12.109375 13.402344 12.109375 13.574219 12.109375 C 13.574219 12.097656 13.574219 12.089844 13.574219 12.085938 C 13.542969 11.933594 13.507812 11.78125 13.476562 11.625 C 13.445312 11.492188 13.417969 11.359375 13.386719 11.222656 C 13.375 11.167969 13.335938 11.144531 13.285156 11.167969 C 13.253906 11.179688 13.246094 11.203125 13.238281 11.234375 C 13.199219 11.417969 13.160156 11.597656 13.117188 11.792969 Z M 13.117188 11.792969 "/>
<path style=" stroke:none;fill-rule:nonzero;fill:rgb(26.274511%,26.666668%,26.274511%);fill-opacity:1;" d="M 5.332031 12.945312 C 5.289062 12.945312 5.253906 12.945312 5.207031 12.945312 C 5.234375 12.851562 5.261719 12.761719 5.289062 12.671875 C 5.445312 12.144531 5.597656 11.621094 5.753906 11.09375 C 5.78125 11.007812 5.8125 10.925781 5.863281 10.847656 C 5.929688 10.753906 6.015625 10.707031 6.128906 10.703125 C 6.253906 10.699219 6.378906 10.699219 6.503906 10.703125 C 6.617188 10.703125 6.707031 10.753906 6.769531 10.847656 C 6.828125 10.929688 6.863281 11.023438 6.890625 11.117188 C 7.0625 11.703125 7.238281 12.292969 7.410156 12.878906 C 7.417969 12.898438 7.417969 12.917969 7.425781 12.941406 C 7.21875 12.941406 7.019531 12.941406 6.816406 12.941406 C 6.78125 12.816406 6.746094 12.691406 6.707031 12.5625 C 6.449219 12.5625 6.191406 12.5625 5.925781 12.5625 C 5.890625 12.6875 5.855469 12.8125 5.820312 12.945312 C 5.65625 12.945312 5.5 12.945312 5.332031 12.945312 M 6.34375 11.175781 C 6.265625 11.171875 6.257812 11.175781 6.242188 11.25 C 6.203125 11.425781 6.164062 11.601562 6.125 11.78125 C 6.101562 11.890625 6.078125 12 6.054688 12.113281 C 6.230469 12.113281 6.402344 12.113281 6.578125 12.113281 C 6.578125 12.101562 6.578125 12.09375 6.578125 12.089844 C 6.515625 11.804688 6.453125 11.523438 6.390625 11.242188 C 6.386719 11.21875 6.367188 11.199219 6.34375 11.175781 Z M 6.34375 11.175781 "/>
<path style=" stroke:none;fill-rule:nonzero;fill:rgb(26.274511%,26.666668%,26.274511%);fill-opacity:1;" d="M 9.152344 11.226562 C 8.953125 11.226562 8.761719 11.226562 8.566406 11.226562 C 8.566406 11.800781 8.566406 12.367188 8.566406 12.941406 C 8.363281 12.949219 8.164062 12.945312 7.960938 12.945312 C 7.960938 12.375 7.960938 11.804688 7.960938 11.230469 C 7.894531 11.222656 7.828125 11.226562 7.761719 11.226562 C 7.695312 11.226562 7.625 11.226562 7.558594 11.226562 C 7.492188 11.226562 7.425781 11.226562 7.359375 11.226562 C 7.34375 11.175781 7.339844 10.820312 7.351562 10.707031 C 7.964844 10.707031 8.578125 10.707031 9.195312 10.707031 C 9.195312 10.722656 9.199219 10.742188 9.199219 10.757812 C 9.199219 10.898438 9.199219 11.039062 9.199219 11.179688 C 9.199219 11.210938 9.195312 11.230469 9.152344 11.226562 Z M 9.152344 11.226562 "/>
<path style=" stroke:none;fill-rule:nonzero;fill:rgb(26.274511%,26.666668%,26.274511%);fill-opacity:1;" d="M 15.871094 11.226562 C 15.761719 11.226562 15.660156 11.226562 15.554688 11.226562 C 15.554688 11.800781 15.554688 12.367188 15.554688 12.941406 C 15.351562 12.941406 15.15625 12.941406 14.949219 12.941406 C 14.949219 12.851562 14.949219 12.757812 14.949219 12.664062 C 14.949219 12.566406 14.949219 12.472656 14.949219 12.375 C 14.949219 12.28125 14.949219 12.183594 14.949219 12.089844 C 14.949219 11.996094 14.949219 11.902344 14.949219 11.808594 C 14.949219 11.710938 14.949219 11.613281 14.949219 11.515625 C 14.949219 11.421875 14.949219 11.328125 14.949219 11.226562 C 14.742188 11.226562 14.542969 11.226562 14.339844 11.226562 C 14.339844 11.050781 14.339844 10.882812 14.339844 10.710938 C 14.390625 10.695312 15.984375 10.691406 16.183594 10.703125 C 16.183594 10.875 16.183594 11.046875 16.183594 11.226562 C 16.082031 11.226562 15.976562 11.226562 15.871094 11.226562 Z M 15.871094 11.226562 "/>
<path style=" stroke:none;fill-rule:nonzero;fill:rgb(27.450982%,27.843139%,27.450982%);fill-opacity:1;" d="M 9.605469 14.824219 C 9.605469 14.945312 9.605469 15.058594 9.605469 15.179688 C 9.546875 15.179688 9.5 15.179688 9.445312 15.179688 C 9.445312 14.730469 9.445312 14.285156 9.445312 13.835938 C 9.511719 13.835938 9.582031 13.835938 9.65625 13.835938 C 9.882812 14.195312 10.109375 14.554688 10.335938 14.914062 C 10.339844 14.914062 10.34375 14.914062 10.347656 14.910156 C 10.347656 14.554688 10.347656 14.199219 10.347656 13.835938 C 10.40625 13.835938 10.457031 13.835938 10.511719 13.835938 C 10.511719 14.285156 10.511719 14.730469 10.511719 15.183594 C 10.445312 15.183594 10.386719 15.183594 10.324219 15.179688 C 10.308594 15.179688 10.292969 15.15625 10.28125 15.140625 C 10.160156 14.953125 10.042969 14.761719 9.921875 14.570312 C 9.824219 14.421875 9.730469 14.269531 9.636719 14.117188 C 9.628906 14.109375 9.621094 14.101562 9.605469 14.097656 C 9.605469 14.335938 9.605469 14.578125 9.605469 14.824219 Z M 9.605469 14.824219 "/>
<path style=" stroke:none;fill-rule:nonzero;fill:rgb(28.235295%,28.627452%,28.235295%);fill-opacity:1;" d="M 8.714844 14.644531 C 8.703125 14.746094 8.695312 14.84375 8.675781 14.941406 C 8.648438 15.0625 8.5625 15.128906 8.449219 15.152344 C 8.402344 15.164062 8.355469 15.171875 8.304688 15.171875 C 8.105469 15.175781 7.902344 15.179688 7.699219 15.183594 C 7.679688 15.183594 7.664062 15.183594 7.640625 15.183594 C 7.640625 14.730469 7.640625 14.285156 7.640625 13.835938 C 7.660156 13.832031 7.679688 13.832031 7.699219 13.832031 C 7.878906 13.832031 8.058594 13.828125 8.238281 13.832031 C 8.3125 13.832031 8.386719 13.84375 8.460938 13.859375 C 8.585938 13.886719 8.660156 13.976562 8.683594 14.101562 C 8.703125 14.191406 8.707031 14.28125 8.714844 14.375 C 8.71875 14.460938 8.714844 14.546875 8.714844 14.644531 M 8.1875 13.992188 C 8.0625 13.992188 7.9375 13.992188 7.8125 13.992188 C 7.8125 14.339844 7.8125 14.675781 7.8125 15.015625 C 7.824219 15.019531 7.832031 15.019531 7.84375 15.019531 C 7.972656 15.019531 8.105469 15.023438 8.238281 15.019531 C 8.289062 15.019531 8.339844 15.011719 8.386719 15.003906 C 8.449219 14.992188 8.492188 14.957031 8.511719 14.898438 C 8.519531 14.867188 8.53125 14.835938 8.535156 14.804688 C 8.550781 14.609375 8.554688 14.414062 8.535156 14.21875 C 8.53125 14.1875 8.519531 14.15625 8.511719 14.125 C 8.496094 14.0625 8.453125 14.019531 8.390625 14.007812 C 8.328125 14 8.265625 13.996094 8.1875 13.992188 Z M 8.1875 13.992188 "/>
<path style=" stroke:none;fill-rule:nonzero;fill:rgb(27.843139%,28.235295%,27.843139%);fill-opacity:1;" d="M 11.386719 14.496094 C 11.535156 14.496094 11.675781 14.496094 11.824219 14.496094 C 11.824219 14.511719 11.828125 14.527344 11.828125 14.542969 C 11.824219 14.667969 11.824219 14.796875 11.8125 14.921875 C 11.796875 15.054688 11.714844 15.136719 11.585938 15.167969 C 11.542969 15.175781 11.5 15.183594 11.457031 15.183594 C 11.335938 15.183594 11.210938 15.183594 11.089844 15.171875 C 10.886719 15.148438 10.824219 15.027344 10.800781 14.886719 C 10.769531 14.699219 10.761719 14.511719 10.78125 14.320312 C 10.789062 14.261719 10.789062 14.199219 10.796875 14.140625 C 10.824219 13.960938 10.917969 13.859375 11.097656 13.832031 C 11.257812 13.808594 11.421875 13.808594 11.582031 13.84375 C 11.726562 13.871094 11.796875 13.953125 11.8125 14.101562 C 11.816406 14.152344 11.8125 14.207031 11.8125 14.265625 C 11.761719 14.265625 11.710938 14.265625 11.652344 14.265625 C 11.652344 14.230469 11.652344 14.195312 11.648438 14.160156 C 11.644531 14.050781 11.613281 14.007812 11.503906 13.992188 C 11.375 13.96875 11.25 13.972656 11.121094 13.992188 C 11.042969 14.003906 10.996094 14.054688 10.976562 14.128906 C 10.960938 14.191406 10.949219 14.253906 10.949219 14.316406 C 10.945312 14.457031 10.949219 14.597656 10.953125 14.738281 C 10.957031 14.792969 10.964844 14.84375 10.980469 14.894531 C 11.003906 14.960938 11.050781 15.003906 11.125 15.019531 C 11.257812 15.042969 11.390625 15.039062 11.523438 15.019531 C 11.59375 15.007812 11.640625 14.96875 11.648438 14.898438 C 11.660156 14.816406 11.664062 14.734375 11.671875 14.644531 C 11.519531 14.644531 11.375 14.644531 11.230469 14.644531 C 11.230469 14.589844 11.230469 14.546875 11.230469 14.496094 C 11.28125 14.496094 11.332031 14.496094 11.386719 14.496094 Z M 11.386719 14.496094 "/>
<path style=" stroke:none;fill-rule:nonzero;fill:rgb(27.450982%,27.843139%,27.450982%);fill-opacity:1;" d="M 12.851562 15.15625 C 12.8125 15.167969 12.78125 15.179688 12.746094 15.179688 C 12.59375 15.1875 12.441406 15.195312 12.292969 15.171875 C 12.160156 15.148438 12.085938 15.070312 12.070312 14.933594 C 12.066406 14.863281 12.0625 14.792969 12.058594 14.71875 C 12.117188 14.71875 12.167969 14.71875 12.222656 14.71875 C 12.222656 14.730469 12.226562 14.75 12.226562 14.765625 C 12.226562 14.785156 12.226562 14.804688 12.226562 14.824219 C 12.230469 14.996094 12.277344 15.011719 12.398438 15.027344 C 12.515625 15.039062 12.632812 15.042969 12.746094 15.019531 C 12.828125 15.003906 12.859375 14.972656 12.867188 14.890625 C 12.871094 14.835938 12.871094 14.777344 12.867188 14.71875 C 12.863281 14.652344 12.835938 14.617188 12.769531 14.605469 C 12.683594 14.585938 12.59375 14.578125 12.503906 14.5625 C 12.421875 14.550781 12.339844 14.542969 12.261719 14.519531 C 12.152344 14.488281 12.097656 14.410156 12.082031 14.292969 C 12.074219 14.203125 12.078125 14.113281 12.097656 14.027344 C 12.117188 13.941406 12.171875 13.886719 12.253906 13.859375 C 12.289062 13.84375 12.332031 13.832031 12.371094 13.832031 C 12.507812 13.824219 12.644531 13.816406 12.78125 13.839844 C 12.921875 13.867188 12.996094 13.949219 13.007812 14.09375 C 13.011719 14.152344 13.015625 14.214844 13.019531 14.28125 C 12.957031 14.28125 12.90625 14.28125 12.84375 14.28125 C 12.84375 14.25 12.84375 14.222656 12.84375 14.195312 C 12.84375 14.167969 12.839844 14.140625 12.839844 14.113281 C 12.835938 14.046875 12.800781 14.007812 12.738281 13.996094 C 12.609375 13.96875 12.476562 13.96875 12.347656 13.996094 C 12.289062 14.007812 12.257812 14.042969 12.253906 14.101562 C 12.25 14.15625 12.25 14.214844 12.253906 14.273438 C 12.253906 14.324219 12.289062 14.355469 12.335938 14.367188 C 12.414062 14.382812 12.488281 14.394531 12.566406 14.40625 C 12.65625 14.421875 12.746094 14.429688 12.832031 14.449219 C 12.9375 14.472656 13.023438 14.539062 13.039062 14.683594 C 13.046875 14.785156 13.042969 14.882812 13.023438 14.976562 C 13 15.066406 12.945312 15.128906 12.851562 15.15625 Z M 12.851562 15.15625 "/>
<path style=" stroke:none;fill-rule:nonzero;fill:rgb(27.450982%,27.843139%,27.450982%);fill-opacity:1;" d="M 5.304688 14.246094 C 5.308594 14.164062 5.324219 14.089844 5.355469 14.019531 C 5.394531 13.921875 5.46875 13.867188 5.570312 13.847656 C 5.621094 13.835938 5.675781 13.828125 5.730469 13.828125 C 5.851562 13.828125 5.96875 13.828125 6.085938 13.839844 C 6.269531 13.863281 6.339844 13.980469 6.371094 14.128906 C 6.382812 14.199219 6.382812 14.265625 6.386719 14.335938 C 6.390625 14.378906 6.398438 14.421875 6.398438 14.464844 C 6.390625 14.601562 6.382812 14.742188 6.371094 14.878906 C 6.363281 14.929688 6.339844 14.984375 6.3125 15.03125 C 6.269531 15.109375 6.195312 15.152344 6.109375 15.167969 C 5.933594 15.199219 5.753906 15.199219 5.578125 15.167969 C 5.460938 15.148438 5.378906 15.074219 5.339844 14.957031 C 5.324219 14.90625 5.3125 14.855469 5.308594 14.800781 C 5.296875 14.679688 5.292969 14.554688 5.292969 14.429688 C 5.292969 14.371094 5.300781 14.3125 5.304688 14.246094 M 6.222656 14.527344 C 6.21875 14.414062 6.21875 14.300781 6.207031 14.191406 C 6.199219 14.078125 6.144531 14.011719 6.046875 13.996094 C 5.910156 13.96875 5.777344 13.96875 5.640625 13.996094 C 5.5625 14.007812 5.511719 14.054688 5.496094 14.132812 C 5.484375 14.179688 5.472656 14.226562 5.472656 14.273438 C 5.46875 14.394531 5.464844 14.519531 5.46875 14.640625 C 5.46875 14.722656 5.480469 14.804688 5.496094 14.882812 C 5.515625 14.960938 5.570312 15.003906 5.652344 15.019531 C 5.761719 15.039062 5.871094 15.039062 5.976562 15.027344 C 6.035156 15.023438 6.089844 15.015625 6.136719 14.976562 C 6.183594 14.933594 6.199219 14.878906 6.207031 14.824219 C 6.214844 14.730469 6.21875 14.636719 6.222656 14.527344 Z M 6.222656 14.527344 "/>
<path style=" stroke:none;fill-rule:nonzero;fill:rgb(27.843139%,28.235295%,27.843139%);fill-opacity:1;" d="M 4.167969 14.257812 C 4.167969 14.304688 4.167969 14.347656 4.167969 14.398438 C 4.402344 14.398438 4.628906 14.398438 4.863281 14.398438 C 4.863281 14.210938 4.863281 14.027344 4.863281 13.835938 C 4.921875 13.835938 4.972656 13.835938 5.027344 13.835938 C 5.027344 14.28125 5.027344 14.726562 5.027344 15.183594 C 5 15.183594 4.976562 15.183594 4.949219 15.183594 C 4.921875 15.183594 4.898438 15.183594 4.871094 15.183594 C 4.871094 14.972656 4.871094 14.773438 4.871094 14.566406 C 4.636719 14.566406 4.40625 14.566406 4.167969 14.566406 C 4.167969 14.769531 4.167969 14.972656 4.167969 15.179688 C 4.113281 15.179688 4.0625 15.179688 4.007812 15.179688 C 4.007812 14.730469 4.007812 14.285156 4.007812 13.835938 C 4.058594 13.835938 4.109375 13.835938 4.167969 13.835938 C 4.167969 13.976562 4.167969 14.113281 4.167969 14.257812 Z M 4.167969 14.257812 "/>
<path style=" stroke:none;fill-rule:nonzero;fill:rgb(27.843139%,28.235295%,27.843139%);fill-opacity:1;" d="M 6.839844 15.183594 C 6.777344 15.183594 6.722656 15.183594 6.667969 15.183594 C 6.65625 15.125 6.648438 14 6.660156 13.835938 C 6.710938 13.835938 6.761719 13.835938 6.820312 13.835938 C 6.820312 14.230469 6.820312 14.621094 6.820312 15.019531 C 7.035156 15.019531 7.242188 15.019531 7.453125 15.019531 C 7.453125 15.074219 7.453125 15.125 7.453125 15.183594 C 7.25 15.183594 7.046875 15.183594 6.839844 15.183594 Z M 6.839844 15.183594 "/>
<path style=" stroke:none;fill-rule:nonzero;fill:rgb(29.019609%,29.411766%,29.019609%);fill-opacity:1;" d="M 9.152344 14.464844 C 9.152344 14.707031 9.152344 14.941406 9.152344 15.179688 C 9.09375 15.179688 9.039062 15.179688 8.980469 15.179688 C 8.980469 14.730469 8.980469 14.285156 8.980469 13.832031 C 9.011719 13.832031 9.039062 13.832031 9.066406 13.832031 C 9.09375 13.832031 9.117188 13.832031 9.152344 13.832031 C 9.152344 14.042969 9.152344 14.25 9.152344 14.464844 Z M 9.152344 14.464844 "/>
<path style=" stroke:none;fill-rule:nonzero;fill:rgb(99.607843%,99.607843%,99.607843%);fill-opacity:1;" d="M 10.664062 11.65625 C 10.664062 11.511719 10.664062 11.375 10.664062 11.230469 C 10.683594 11.230469 10.703125 11.226562 10.71875 11.226562 C 10.878906 11.226562 11.035156 11.226562 11.191406 11.226562 C 11.230469 11.226562 11.269531 11.234375 11.308594 11.242188 C 11.371094 11.25 11.417969 11.292969 11.4375 11.351562 C 11.457031 11.402344 11.46875 11.460938 11.472656 11.515625 C 11.476562 11.707031 11.472656 11.894531 11.472656 12.085938 C 11.46875 12.136719 11.457031 12.1875 11.445312 12.238281 C 11.417969 12.339844 11.347656 12.398438 11.246094 12.414062 C 11.21875 12.417969 11.191406 12.421875 11.164062 12.421875 C 11.019531 12.421875 10.878906 12.421875 10.734375 12.421875 C 10.714844 12.421875 10.691406 12.421875 10.664062 12.421875 C 10.664062 12.164062 10.664062 11.914062 10.664062 11.65625 Z M 10.664062 11.65625 "/>
<path style=" stroke:none;fill-rule:nonzero;fill:rgb(99.607843%,99.607843%,99.607843%);fill-opacity:1;" d="M 2.09375 11.332031 C 2.125 11.460938 2.117188 11.582031 2.105469 11.703125 C 2.097656 11.789062 2.050781 11.832031 1.964844 11.835938 C 1.796875 11.84375 1.628906 11.847656 1.464844 11.855469 C 1.449219 11.796875 1.445312 11.34375 1.457031 11.230469 C 1.472656 11.230469 1.488281 11.226562 1.507812 11.226562 C 1.625 11.226562 1.746094 11.226562 1.863281 11.226562 C 1.898438 11.226562 1.929688 11.234375 1.964844 11.238281 C 2.023438 11.246094 2.066406 11.273438 2.09375 11.332031 Z M 2.09375 11.332031 "/>
<path style=" stroke:none;fill-rule:nonzero;fill:rgb(98.431373%,98.431373%,98.431373%);fill-opacity:1;" d="M 13.117188 11.785156 C 13.160156 11.597656 13.199219 11.417969 13.238281 11.234375 C 13.246094 11.203125 13.253906 11.179688 13.285156 11.167969 C 13.335938 11.144531 13.375 11.167969 13.386719 11.222656 C 13.417969 11.359375 13.445312 11.492188 13.476562 11.625 C 13.507812 11.78125 13.542969 11.933594 13.574219 12.085938 C 13.574219 12.089844 13.574219 12.097656 13.574219 12.109375 C 13.402344 12.109375 13.230469 12.109375 13.050781 12.109375 C 13.074219 12 13.09375 11.898438 13.117188 11.785156 Z M 13.117188 11.785156 "/>
<path style=" stroke:none;fill-rule:nonzero;fill:rgb(99.215686%,99.215686%,99.215686%);fill-opacity:1;" d="M 6.351562 11.175781 C 6.367188 11.199219 6.386719 11.21875 6.390625 11.242188 C 6.453125 11.523438 6.515625 11.804688 6.578125 12.089844 C 6.578125 12.09375 6.578125 12.101562 6.578125 12.113281 C 6.402344 12.113281 6.230469 12.113281 6.054688 12.113281 C 6.078125 12 6.101562 11.890625 6.125 11.78125 C 6.164062 11.601562 6.203125 11.425781 6.242188 11.25 C 6.257812 11.175781 6.265625 11.171875 6.351562 11.175781 Z M 6.351562 11.175781 "/>
<path style=" stroke:none;fill-rule:nonzero;fill:rgb(99.607843%,99.607843%,99.607843%);fill-opacity:1;" d="M 8.195312 13.992188 C 8.265625 13.996094 8.328125 14 8.390625 14.007812 C 8.453125 14.019531 8.496094 14.0625 8.511719 14.125 C 8.519531 14.15625 8.53125 14.1875 8.535156 14.21875 C 8.554688 14.414062 8.550781 14.609375 8.535156 14.804688 C 8.53125 14.835938 8.519531 14.867188 8.511719 14.898438 C 8.492188 14.957031 8.449219 14.992188 8.386719 15.003906 C 8.339844 15.011719 8.289062 15.019531 8.238281 15.019531 C 8.105469 15.023438 7.972656 15.019531 7.84375 15.019531 C 7.832031 15.019531 7.824219 15.019531 7.8125 15.015625 C 7.8125 14.675781 7.8125 14.339844 7.8125 13.992188 C 7.9375 13.992188 8.0625 13.992188 8.195312 13.992188 Z M 8.195312 13.992188 "/>
<path style=" stroke:none;fill-rule:nonzero;fill:rgb(99.607843%,99.607843%,99.607843%);fill-opacity:1;" d="M 6.222656 14.535156 C 6.21875 14.636719 6.214844 14.730469 6.207031 14.824219 C 6.199219 14.878906 6.183594 14.933594 6.136719 14.976562 C 6.089844 15.015625 6.035156 15.023438 5.976562 15.027344 C 5.871094 15.039062 5.761719 15.039062 5.652344 15.019531 C 5.570312 15.003906 5.515625 14.960938 5.496094 14.882812 C 5.480469 14.804688 5.46875 14.722656 5.46875 14.640625 C 5.464844 14.519531 5.46875 14.394531 5.472656 14.273438 C 5.472656 14.226562 5.484375 14.179688 5.496094 14.132812 C 5.511719 14.054688 5.5625 14.007812 5.640625 13.996094 C 5.777344 13.96875 5.910156 13.96875 6.046875 13.996094 C 6.144531 14.011719 6.199219 14.078125 6.207031 14.191406 C 6.21875 14.300781 6.21875 14.414062 6.222656 14.535156 Z M 6.222656 14.535156 "/>
</g>
</svg>
