<svg version="1.1" id="Layer_1" xmlns="http://www.w3.org/2000/svg" xmlns:xlink="http://www.w3.org/1999/xlink" x="0px" y="0px"
	 width="100%" viewBox="0 0 2481 2314" enable-background="new 0 0 2481 2314" xml:space="preserve">
<path fill="#FFFFFF" opacity="1.000000" stroke="none" 
	d="
M1414.000000,2316.000000 
	C942.666687,2316.000000 472.333344,2316.000000 2.000000,2316.000000 
	C2.000000,1544.666626 2.000000,773.333313 2.000000,2.000000 
	C829.333313,2.000000 1656.666626,2.000000 2484.000000,2.000000 
	C2484.000000,773.333313 2484.000000,1544.666626 2484.000000,2316.000000 
	C2127.666748,2316.000000 1771.333374,2316.000000 1414.000000,2316.000000 
M797.895813,158.774429 
	C764.286255,174.779068 733.876587,195.624771 706.695374,220.918671 
	C662.650146,261.905701 629.463013,310.446167 607.850037,366.728912 
	C590.890991,410.892090 581.638794,456.504456 581.648682,503.942871 
	C581.702332,761.267822 581.674133,1018.592773 581.674133,1275.917725 
	C581.674133,1280.166260 581.674133,1284.414795 581.674133,1288.982910 
	C645.432312,1288.982910 708.187561,1288.982910 772.049805,1288.982910 
	C772.049805,964.522888 772.049805,640.756531 772.049805,316.334106 
	C776.768677,316.334106 780.384460,316.308319 783.999878,316.337982 
	C837.945496,316.780426 891.890747,317.557251 945.836731,317.616455 
	C1103.831421,317.789856 1261.826294,317.678162 1419.821167,317.678162 
	C1423.723755,317.678162 1427.626465,317.678162 1431.580566,317.678162 
	C1431.580566,414.852783 1431.580566,510.931946 1431.580566,607.665955 
	C1427.229492,607.665955 1423.613770,607.665894 1419.997925,607.665894 
	C1328.667603,607.665894 1237.336914,607.562378 1146.007080,607.786194 
	C1133.421265,607.817078 1120.703613,608.595154 1108.278198,610.520325 
	C1041.315186,620.895203 984.955322,651.561218 939.806885,701.878784 
	C889.982300,757.407715 865.230957,823.532898 864.615479,897.644958 
	C863.555420,1025.298706 864.317810,1152.967529 864.348389,1280.630005 
	C864.349060,1283.484619 864.743958,1286.339233 864.990723,1289.678101 
	C869.857605,1289.678101 873.827332,1289.678101 877.797058,1289.678101 
	C1091.456787,1289.678101 1305.116455,1289.667969 1518.776245,1289.692749 
	C1542.063721,1289.695435 1565.209961,1288.118286 1588.199463,1284.319458 
	C1661.113403,1272.270996 1724.670654,1240.735107 1779.134521,1191.191650 
	C1816.946533,1156.795654 1846.611572,1116.165771 1868.442017,1069.741333 
	C1893.020386,1017.472839 1906.073730,962.501892 1906.159058,904.946777 
	C1906.541626,646.622375 1906.327271,388.297150 1906.301147,129.972229 
	C1906.300903,127.422295 1905.936401,124.872383 1905.751587,122.448746 
	C1887.171631,120.458633 1723.907227,121.252457 1715.998291,123.544769 
	C1715.998291,446.454315 1715.998291,769.616150 1715.998291,1093.146973 
	C1495.648315,1093.146973 1276.165527,1093.146973 1056.318359,1093.146973 
	C1056.318359,996.530945 1056.318359,900.434875 1056.318359,803.678162 
	C1060.564941,803.678162 1064.177124,803.678162 1067.789307,803.678162 
	C1154.786499,803.678162 1241.783569,803.702026 1328.780762,803.660706 
	C1349.396240,803.650940 1369.895630,802.146118 1390.194702,798.328857 
	C1447.916016,787.474487 1497.028198,760.296021 1538.272339,718.982361 
	C1563.152222,694.060547 1582.563232,665.096741 1596.820923,632.794983 
	C1612.430420,597.431030 1622.008667,560.458984 1622.146729,521.802429 
	C1622.614868,390.808350 1622.328247,259.811584 1622.294312,128.815857 
	C1622.293823,126.609421 1621.844727,124.403107 1621.547363,121.665909 
	C1617.033325,121.665909 1613.079468,121.665909 1609.125610,121.665909 
	C1394.465942,121.665909 1179.806274,121.625992 965.146667,121.752235 
	C950.214233,121.761017 935.225464,122.394989 920.361389,123.788605 
	C877.920898,127.767700 837.559631,139.422806 797.895813,158.774429 
M1521.000000,1872.336304 
	C1564.329346,1872.336304 1607.658691,1872.375122 1650.988037,1872.317505 
	C1668.701050,1872.294067 1686.095093,1869.998047 1702.910278,1864.181763 
	C1724.333740,1856.771484 1740.368530,1843.269531 1750.432983,1822.712769 
	C1761.084106,1800.958496 1763.804199,1777.602295 1764.205200,1753.941284 
	C1764.719116,1723.619385 1764.346558,1693.282104 1764.323242,1662.951538 
	C1764.311401,1647.574341 1762.050293,1632.492065 1757.793701,1617.742554 
	C1748.470825,1585.437500 1727.674316,1564.365479 1695.356689,1554.969238 
	C1678.691528,1550.124023 1661.590454,1547.719360 1644.231201,1547.693726 
	C1589.236328,1547.612915 1534.241211,1547.663818 1479.246216,1547.663818 
	C1476.343750,1547.663818 1473.441284,1547.663818 1470.384766,1547.663818 
	C1470.384766,1656.402710 1470.384766,1764.136963 1470.384766,1872.336304 
	C1487.063965,1872.336304 1503.031982,1872.336304 1521.000000,1872.336304 
M640.323181,1832.999146 
	C640.323181,1845.885864 640.323181,1858.772583 640.323181,1871.611084 
	C670.341370,1871.611084 699.119812,1871.611084 727.768555,1871.611084 
	C727.768555,1763.399780 727.768555,1655.916016 727.768555,1548.396973 
	C698.449158,1548.396973 669.698853,1548.396973 640.139648,1548.396973 
	C640.139648,1588.972290 640.139648,1628.820923 640.139648,1668.526978 
	C627.787537,1670.489380 537.050598,1670.046509 529.371460,1667.899658 
	C529.371460,1628.260620 529.371460,1588.390015 529.371460,1548.317871 
	C499.791534,1548.317871 471.020477,1548.317871 442.160461,1548.317871 
	C442.160461,1656.457642 442.160461,1763.941162 442.160461,1871.681763 
	C471.411438,1871.681763 500.166229,1871.681763 529.793579,1871.681763 
	C529.793579,1829.545288 529.793579,1788.053955 529.793579,1746.396118 
	C567.075684,1746.396118 603.474670,1746.396118 639.735168,1746.396118 
	C640.003845,1747.750610 640.239929,1748.387695 640.240906,1749.025146 
	C640.281372,1776.349976 640.301025,1803.674683 640.323181,1832.999146 
M235.024811,1789.680542 
	C253.015579,1789.680542 271.024048,1790.172363 288.991547,1789.525879 
	C303.538879,1789.002441 318.182343,1787.997192 332.528046,1785.647705 
	C367.807495,1779.869873 387.515594,1759.626953 394.262939,1724.466187 
	C399.385040,1697.774780 398.739624,1670.878174 397.854065,1643.969727 
	C397.382019,1629.625732 394.400482,1615.629150 389.588165,1602.120239 
	C381.244080,1578.697144 365.225250,1562.964111 341.591919,1554.952759 
	C327.288910,1550.104370 312.540192,1547.794800 297.553436,1547.739502 
	C242.581879,1547.536621 187.609116,1547.651245 132.636810,1547.683716 
	C130.095154,1547.685181 127.553688,1548.046509 124.821609,1548.254761 
	C124.821609,1656.430786 124.821609,1763.882812 124.821609,1871.823853 
	C153.782181,1871.823853 182.240250,1871.823853 211.913910,1871.823853 
	C211.913910,1844.251587 211.913910,1817.167969 211.913910,1789.680542 
	C219.762024,1789.680542 226.397171,1789.680542 235.024811,1789.680542 
M1795.481689,1822.390869 
	C1790.971436,1837.974487 1786.461304,1853.558105 1781.753906,1869.823486 
	C1811.671875,1869.823486 1840.803711,1869.823486 1870.568726,1869.823486 
	C1875.721436,1851.808350 1880.814209,1834.003052 1885.906372,1816.199707 
	C1924.286987,1816.199707 1962.150391,1816.199707 2000.497437,1816.199707 
	C2005.668945,1834.342163 2010.742554,1852.141235 2015.738525,1869.667603 
	C2045.627930,1869.667603 2074.721436,1869.667603 2104.353027,1869.667603 
	C2101.591797,1859.651978 2099.193115,1850.352295 2096.465088,1841.150269 
	C2074.562988,1767.269531 2052.736572,1693.365723 2030.535278,1619.574829 
	C2026.146606,1604.988281 2021.353760,1590.323486 2014.775024,1576.643188 
	C2005.071045,1556.464233 1988.767822,1545.407227 1965.331543,1546.215210 
	C1949.353760,1546.765991 1933.340820,1546.214722 1917.345093,1546.350220 
	C1900.997559,1546.488647 1887.780518,1553.087891 1877.958984,1566.231201 
	C1870.087769,1576.764404 1865.172729,1588.732422 1861.440918,1601.211670 
	C1839.552734,1674.406250 1817.716797,1747.616211 1795.481689,1822.390869 
M779.139526,1872.339355 
	C802.409546,1872.339355 825.679565,1872.339355 849.177063,1872.339355 
	C854.667236,1853.175903 859.928284,1834.811768 865.074707,1816.848145 
	C903.774963,1816.848145 941.346069,1816.848145 979.093750,1816.848145 
	C984.389221,1835.396851 989.565063,1853.526367 994.812805,1871.907959 
	C1024.487183,1871.907959 1053.708984,1871.907959 1083.540894,1871.907959 
	C1082.788940,1868.532837 1082.326294,1865.641724 1081.498535,1862.859131 
	C1056.209839,1777.847168 1030.894653,1692.843018 1005.556213,1607.845947 
	C1001.459045,1594.102173 996.495544,1580.746460 988.117493,1568.888916 
	C978.639099,1555.473877 965.749695,1548.120728 949.385925,1547.770996 
	C931.063416,1547.379517 912.715942,1547.306519 894.398132,1547.797485 
	C878.089722,1548.234619 865.136475,1555.558594 855.742859,1569.083496 
	C848.240479,1579.885498 843.538513,1591.892944 839.814209,1604.386841 
	C817.134521,1680.469849 794.414917,1756.540894 771.723206,1832.620239 
	C767.878479,1845.510498 764.104614,1858.421753 759.998291,1872.339355 
	C766.600830,1872.339355 771.896912,1872.339355 779.139526,1872.339355 
M1336.508789,1623.675171 
	C1341.812744,1624.438477 1342.406006,1621.319946 1342.382080,1617.070679 
	C1342.267456,1596.750488 1342.346313,1576.429443 1342.315063,1556.108643 
	C1342.311157,1553.546997 1342.063354,1550.985596 1341.923096,1548.319580 
	C1251.852539,1548.319580 1162.464600,1548.319580 1073.152588,1548.319580 
	C1071.323608,1564.739990 1071.923218,1616.309570 1074.083374,1623.678589 
	C1083.577637,1623.678589 1093.218628,1623.678589 1102.859497,1623.678589 
	C1112.853271,1623.678589 1122.848511,1623.575195 1132.840576,1623.708496 
	C1142.315918,1623.834717 1151.854736,1623.088745 1162.066406,1624.324463 
	C1162.066406,1707.479614 1162.066406,1789.593384 1162.066406,1872.400757 
	C1191.669434,1872.033325 1220.419556,1872.876465 1249.990479,1871.889648 
	C1249.990479,1788.635254 1249.990479,1706.518188 1249.990479,1623.678101 
	C1278.753906,1623.678101 1306.670288,1623.678101 1336.508789,1623.675171 
M2317.000000,1623.678467 
	C2331.880615,1623.678467 2346.761230,1623.678467 2361.625488,1623.678467 
	C2361.625488,1597.675293 2361.625488,1572.902832 2361.625488,1548.195312 
	C2332.500000,1546.061768 2100.270508,1547.084595 2092.932617,1549.286011 
	C2092.932617,1573.823120 2092.932617,1598.317261 2092.932617,1623.861328 
	C2122.643311,1623.861328 2151.762939,1623.861328 2181.666748,1623.861328 
	C2181.666748,1638.497681 2181.666748,1652.087646 2181.666748,1665.677734 
	C2181.666748,1679.668213 2181.666748,1693.658569 2181.666748,1707.649048 
	C2181.666748,1721.306396 2181.666748,1734.963745 2181.666748,1748.621094 
	C2181.666748,1762.278442 2181.666748,1775.935669 2181.666748,1789.593018 
	C2181.666748,1803.583496 2181.648438,1817.573853 2181.672119,1831.564331 
	C2181.694824,1845.058105 2181.563721,1858.559448 2181.757568,1871.775635 
	C2211.739990,1871.775635 2240.260010,1871.775635 2269.945312,1871.775635 
	C2269.945312,1788.853149 2269.945312,1706.485596 2269.945312,1623.678467 
	C2285.744385,1623.678467 2300.372070,1623.678467 2317.000000,1623.678467 
M1401.700684,2143.000000 
	C1401.700684,2108.218506 1401.700684,2073.437012 1401.700684,2038.655640 
	C1404.390625,2039.390259 1405.453003,2040.487915 1406.255493,2041.750854 
	C1420.171753,2063.648682 1434.036987,2085.579102 1447.952271,2107.477539 
	C1465.437378,2134.993652 1482.913940,2162.515625 1500.543213,2189.939209 
	C1502.011108,2192.222656 1504.507446,2195.256592 1506.704346,2195.412109 
	C1515.569092,2196.037842 1524.503906,2195.671387 1533.842041,2195.671387 
	C1533.842041,2130.207275 1533.842041,2065.750244 1533.842041,2000.978882 
	C1525.893066,2000.978882 1518.468018,2000.978882 1510.018555,2000.978882 
	C1510.018555,2053.316895 1510.018555,2104.985352 1510.018555,2156.653809 
	C1509.483398,2156.770264 1508.948120,2156.886963 1508.412964,2157.003418 
	C1475.242188,2104.918457 1442.071289,2052.833252 1409.050781,2000.984131 
	C1398.520386,2000.984131 1388.345093,2000.984131 1378.364258,2000.984131 
	C1378.364258,2066.132324 1378.364258,2130.593018 1378.364258,2195.187500 
	C1386.273193,2195.187500 1393.454224,2195.187500 1401.700562,2195.187500 
	C1401.700562,2178.131348 1401.700562,2161.565674 1401.700684,2143.000000 
M1271.713745,2116.734375 
	C1271.713745,2104.084229 1272.233398,2091.406738 1271.570923,2078.791504 
	C1270.877686,2065.587402 1269.922241,2052.280273 1267.505859,2039.311768 
	C1264.117188,2021.124146 1253.087402,2008.602783 1234.739502,2004.407471 
	C1224.153442,2001.986938 1213.122559,2000.692749 1202.259033,2000.465088 
	C1175.971436,1999.914307 1149.664551,2000.267334 1123.365356,2000.313721 
	C1120.510498,2000.318726 1117.656250,2000.701416 1114.992188,2000.895142 
	C1114.992188,2066.216797 1114.992188,2130.615479 1114.992188,2195.713623 
	C1118.307495,2195.713623 1120.920288,2195.747559 1123.531860,2195.708740 
	C1153.106812,2195.268066 1182.685059,2194.958008 1212.254150,2194.263672 
	C1219.172729,2194.101318 1226.183105,2193.175293 1232.938232,2191.654053 
	C1249.806152,2187.855713 1262.200439,2178.153564 1265.994141,2160.873047 
	C1269.028931,2147.049316 1269.888550,2132.748047 1271.713745,2116.734375 
M1661.053711,2096.293457 
	C1653.809570,2096.293457 1646.565308,2096.293457 1638.838623,2096.293457 
	C1638.838623,2103.787354 1638.838623,2110.240723 1638.838623,2117.826172 
	C1660.131470,2117.826172 1680.910400,2117.826172 1703.126099,2117.826172 
	C1702.060669,2130.881104 1701.538330,2142.764404 1699.996094,2154.514160 
	C1698.668091,2164.630615 1691.819946,2170.402344 1682.009155,2171.920166 
	C1662.556641,2174.929688 1643.033203,2175.333252 1623.544189,2171.942871 
	C1613.048706,2170.116943 1605.880127,2163.896973 1602.702881,2154.061768 
	C1600.384521,2146.885498 1598.812866,2139.200684 1598.539673,2131.683105 
	C1597.802002,2111.393555 1597.508179,2091.063232 1597.917603,2070.766846 
	C1598.102905,2061.576660 1599.694702,2052.264160 1601.869019,2043.303589 
	C1604.504761,2032.441528 1611.607056,2025.477051 1623.162964,2023.635620 
	C1641.681274,2020.684692 1660.276001,2020.410034 1678.717773,2023.363037 
	C1694.831787,2025.943359 1699.610107,2032.093018 1700.251343,2048.190918 
	C1700.445801,2053.074219 1700.281494,2057.971680 1700.281494,2063.006348 
	C1708.957153,2063.006348 1716.399048,2063.006348 1723.874756,2063.006348 
	C1723.874756,2054.673828 1724.464233,2046.985962 1723.762695,2039.417847 
	C1721.776001,2017.982788 1711.175537,2006.306274 1690.043335,2001.937134 
	C1666.713501,1997.113403 1643.126099,1997.205078 1619.746338,2000.737793 
	C1593.563965,2004.694214 1579.952026,2019.004395 1575.901001,2045.164795 
	C1574.584595,2053.665527 1574.380249,2062.333740 1573.513550,2070.909668 
	C1570.725708,2098.495850 1571.593750,2126.046387 1576.444580,2153.251465 
	C1579.978638,2173.072754 1589.060913,2191.051025 1618.578003,2194.157471 
	C1636.351562,2196.028076 1654.375854,2195.755371 1672.291870,2195.901611 
	C1678.525269,2195.952637 1684.872925,2194.819092 1690.993896,2193.448242 
	C1709.933594,2189.205811 1721.781982,2177.353760 1723.831665,2158.090332 
	C1725.759766,2139.969482 1725.636230,2121.627686 1726.311523,2103.379639 
	C1726.392090,2101.204834 1725.820801,2099.005859 1725.487061,2096.293457 
	C1704.251953,2096.293457 1683.643555,2096.293457 1661.053711,2096.293457 
M1876.535645,2191.995361 
	C1889.328491,2187.856689 1897.234619,2179.090576 1900.376465,2166.162354 
	C1903.769409,2152.200195 1903.930542,2138.185059 1902.670410,2123.769287 
	C1900.836426,2102.788574 1887.998779,2092.937012 1873.006104,2089.802246 
	C1860.064331,2087.095947 1846.848511,2085.715820 1833.774780,2083.619385 
	C1822.675659,2081.839355 1811.534912,2080.208740 1800.549316,2077.869629 
	C1793.494873,2076.367676 1788.484009,2071.721924 1788.102051,2064.121094 
	C1787.685913,2055.836426 1787.760742,2047.480713 1788.336792,2039.205811 
	C1788.906860,2031.017212 1793.649780,2025.611694 1801.822510,2024.074097 
	C1820.938110,2020.477661 1840.159424,2020.379517 1859.229980,2024.130127 
	C1867.921265,2025.839355 1873.038818,2031.741577 1873.723511,2040.877563 
	C1874.021606,2044.854126 1874.159424,2048.844727 1874.285278,2052.831787 
	C1874.416748,2056.993652 1874.446167,2061.158936 1874.517944,2065.194824 
	C1883.524536,2065.194824 1891.081177,2065.194824 1900.026123,2065.194824 
	C1899.437744,2055.817383 1899.008545,2046.994141 1898.307251,2038.192749 
	C1896.644775,2017.332520 1886.057983,2005.557495 1865.207886,2001.706177 
	C1845.415649,1998.050171 1825.432983,1999.398193 1805.528931,2000.373047 
	C1799.669556,2000.660034 1793.695923,2002.190918 1788.130249,2004.157837 
	C1776.472412,2008.277466 1768.328735,2016.036499 1765.583740,2028.615479 
	C1762.813354,2041.310913 1761.890137,2053.930664 1763.418335,2067.027832 
	C1765.381958,2083.857910 1773.609985,2095.194580 1789.540039,2099.776611 
	C1800.920044,2103.050293 1812.868286,2104.433350 1824.618896,2106.310303 
	C1837.681152,2108.396240 1850.918213,2109.530273 1863.868042,2112.130371 
	C1873.516724,2114.067383 1877.553101,2119.322510 1878.030518,2128.859375 
	C1878.445312,2137.144287 1878.424683,2145.528320 1877.638794,2153.777344 
	C1876.517700,2165.548096 1871.923828,2170.068848 1860.355347,2172.260498 
	C1843.536133,2175.446289 1826.504883,2174.981934 1809.723389,2173.074707 
	C1791.927734,2171.052002 1784.995850,2168.560303 1784.364624,2143.706787 
	C1784.296997,2141.043945 1784.442261,2138.374512 1784.330078,2135.714600 
	C1784.222900,2133.177979 1783.908325,2130.650146 1783.717285,2128.483887 
	C1775.567261,2128.483887 1768.148682,2128.483887 1759.721313,2128.483887 
	C1760.407227,2139.601562 1760.700684,2149.856445 1761.740967,2160.035400 
	C1763.717529,2179.372803 1774.510010,2190.770508 1793.799927,2194.015625 
	C1815.921143,2197.737305 1838.210815,2196.743408 1860.453613,2195.532715 
	C1865.342285,2195.266602 1870.149414,2193.500732 1876.535645,2191.995361 
M774.035400,2061.300293 
	C773.457092,2069.895508 772.292664,2078.499268 772.422302,2087.083740 
	C772.692993,2105.006348 773.254089,2122.946289 774.507141,2140.822021 
	C775.033508,2148.330566 777.067993,2155.870361 779.376526,2163.089111 
	C784.815186,2180.095459 796.733398,2190.574219 814.229248,2193.594971 
	C839.954529,2198.036865 865.862488,2197.938232 891.604736,2193.616943 
	C904.218384,2191.499756 914.998291,2185.213623 921.369873,2173.843994 
	C925.196960,2167.014648 928.674316,2159.275635 929.530579,2151.634277 
	C931.742615,2131.892822 932.611450,2111.988037 933.580383,2092.127441 
	C933.884705,2085.890381 932.859802,2079.580566 932.341187,2073.312988 
	C931.521179,2063.402832 931.407349,2053.351562 929.585022,2043.624146 
	C925.476013,2021.690063 914.863098,2004.931885 888.161804,2001.858521 
	C871.065979,1999.890625 853.699524,1999.935913 836.448792,1999.801147 
	C828.553345,1999.739380 820.494080,2000.741699 812.773865,2002.454590 
	C798.393799,2005.644897 787.467102,2013.615601 781.367676,2027.593262 
	C776.915710,2037.795654 774.991150,2048.465820 774.035400,2061.300293 
M608.361694,2060.939453 
	C608.361694,2041.041260 608.361694,2021.143066 608.361694,2000.981934 
	C599.867371,2000.981934 592.442383,2000.981934 584.990112,2000.981934 
	C584.990112,2066.119873 584.990112,2130.565186 584.990112,2195.239258 
	C592.885254,2195.239258 600.078796,2195.239258 608.409668,2195.239258 
	C608.409668,2165.346924 608.409668,2135.894775 608.409668,2106.436523 
	C642.993530,2106.436523 676.426941,2106.436523 710.633240,2106.436523 
	C710.633240,2136.353516 710.633240,2165.549805 710.633240,2195.708008 
	C714.983521,2195.708008 718.562622,2195.708008 722.141724,2195.708008 
	C726.015015,2195.708008 729.888306,2195.708008 733.674988,2195.708008 
	C733.674988,2129.918945 733.674988,2065.457520 733.674988,2001.129395 
	C725.543335,2001.129395 718.132141,2001.129395 709.952759,2001.129395 
	C709.952759,2028.486816 709.952759,2055.014648 709.952759,2082.287354 
	C675.752563,2082.271729 642.345947,2082.347168 608.361755,2082.237549 
	C608.361755,2074.824463 608.361755,2068.868164 608.361694,2060.939453 
M999.018677,2195.709473 
	C1028.559814,2195.709473 1058.100952,2195.709473 1087.722900,2195.709473 
	C1087.722900,2187.343506 1087.722900,2180.201416 1087.722900,2172.200195 
	C1056.937378,2172.200195 1026.778809,2172.200195 995.522827,2172.200195 
	C995.522827,2114.579346 995.522827,2057.826660 995.522827,2001.051270 
	C986.969116,2001.051270 979.543762,2001.051270 972.196899,2001.051270 
	C970.302429,2024.879761 971.179016,2187.695557 973.335876,2195.709229 
	C981.118713,2195.709229 989.072632,2195.709229 999.018677,2195.709473 
M1335.728271,2091.000000 
	C1335.728271,2061.110352 1335.728271,2031.220947 1335.728271,2000.271729 
	C1330.817993,2000.271729 1326.907227,2000.271729 1322.996460,2000.271729 
	C1319.086182,2000.271729 1315.176025,2000.271729 1310.794922,2000.271729 
	C1310.794922,2065.784424 1310.794922,2130.220215 1310.794922,2195.189941 
	C1319.107666,2195.189941 1326.896851,2195.189941 1335.728149,2195.189941 
	C1335.728149,2160.774902 1335.728149,2126.887451 1335.728271,2091.000000 
z"/>
<path fill="#EA232B" opacity="1.000000" stroke="none" 
	d="
M798.566895,158.441498 
	C837.559631,139.422806 877.920898,127.767700 920.361389,123.788605 
	C935.225464,122.394989 950.214233,121.761017 965.146667,121.752235 
	C1179.806274,121.625992 1394.465942,121.665909 1609.125610,121.665909 
	C1613.079468,121.665909 1617.033325,121.665909 1621.547363,121.665909 
	C1621.844727,124.403107 1622.293823,126.609421 1622.294312,128.815857 
	C1622.328247,259.811584 1622.614868,390.808350 1622.146729,521.802429 
	C1622.008667,560.458984 1612.430420,597.431030 1596.820923,632.794983 
	C1582.563232,665.096741 1563.152222,694.060547 1538.272339,718.982361 
	C1497.028198,760.296021 1447.916016,787.474487 1390.194702,798.328857 
	C1369.895630,802.146118 1349.396240,803.650940 1328.780762,803.660706 
	C1241.783569,803.702026 1154.786499,803.678162 1067.789307,803.678162 
	C1064.177124,803.678162 1060.564941,803.678162 1056.318359,803.678162 
	C1056.318359,900.434875 1056.318359,996.530945 1056.318359,1093.146973 
	C1276.165527,1093.146973 1495.648315,1093.146973 1715.998291,1093.146973 
	C1715.998291,769.616150 1715.998291,446.454315 1715.998291,123.544769 
	C1723.907227,121.252457 1887.171631,120.458633 1905.751587,122.448746 
	C1905.936401,124.872383 1906.300903,127.422295 1906.301147,129.972229 
	C1906.327271,388.297150 1906.541626,646.622375 1906.159058,904.946777 
	C1906.073730,962.501892 1893.020386,1017.472839 1868.442017,1069.741333 
	C1846.611572,1116.165771 1816.946533,1156.795654 1779.134521,1191.191650 
	C1724.670654,1240.735107 1661.113403,1272.270996 1588.199463,1284.319458 
	C1565.209961,1288.118286 1542.063721,1289.695435 1518.776245,1289.692749 
	C1305.116455,1289.667969 1091.456787,1289.678101 877.797058,1289.678101 
	C873.827332,1289.678101 869.857605,1289.678101 864.990723,1289.678101 
	C864.743958,1286.339233 864.349060,1283.484619 864.348389,1280.630005 
	C864.317810,1152.967529 863.555420,1025.298706 864.615479,897.644958 
	C865.230957,823.532898 889.982300,757.407715 939.806885,701.878784 
	C984.955322,651.561218 1041.315186,620.895203 1108.278198,610.520325 
	C1120.703613,608.595154 1133.421265,607.817078 1146.007080,607.786194 
	C1237.336914,607.562378 1328.667603,607.665894 1419.997925,607.665894 
	C1423.613770,607.665894 1427.229492,607.665955 1431.580566,607.665955 
	C1431.580566,510.931946 1431.580566,414.852783 1431.580566,317.678162 
	C1427.626465,317.678162 1423.723755,317.678162 1419.821167,317.678162 
	C1261.826294,317.678162 1103.831421,317.789856 945.836731,317.616455 
	C891.890747,317.557251 837.945496,316.780426 783.999878,316.337982 
	C780.384460,316.308319 776.768677,316.334106 772.049805,316.334106 
	C772.049805,640.756531 772.049805,964.522888 772.049805,1288.982910 
	C708.187561,1288.982910 645.432312,1288.982910 581.674133,1288.982910 
	C581.674133,1284.414795 581.674133,1280.166260 581.674133,1275.917725 
	C581.674133,1018.592773 581.702332,761.267822 581.648682,503.942871 
	C581.638794,456.504456 590.890991,410.892090 607.850037,366.728912 
	C629.463013,310.446167 662.650146,261.905701 706.695374,220.918671 
	C733.876587,195.624771 764.286255,174.779068 798.566895,158.441498 
z"/>
<path fill="#434443" opacity="1.000000" stroke="none" 
	d="
M1520.000000,1872.336304 
	C1503.031982,1872.336304 1487.063965,1872.336304 1470.384766,1872.336304 
	C1470.384766,1764.136963 1470.384766,1656.402710 1470.384766,1547.663818 
	C1473.441284,1547.663818 1476.343750,1547.663818 1479.246216,1547.663818 
	C1534.241211,1547.663818 1589.236328,1547.612915 1644.231201,1547.693726 
	C1661.590454,1547.719360 1678.691528,1550.124023 1695.356689,1554.969238 
	C1727.674316,1564.365479 1748.470825,1585.437500 1757.793701,1617.742554 
	C1762.050293,1632.492065 1764.311401,1647.574341 1764.323242,1662.951538 
	C1764.346558,1693.282104 1764.719116,1723.619385 1764.205200,1753.941284 
	C1763.804199,1777.602295 1761.084106,1800.958496 1750.432983,1822.712769 
	C1740.368530,1843.269531 1724.333740,1856.771484 1702.910278,1864.181763 
	C1686.095093,1869.998047 1668.701050,1872.294067 1650.988037,1872.317505 
	C1607.658691,1872.375122 1564.329346,1872.336304 1520.000000,1872.336304 
M1556.323975,1687.000000 
	C1556.323975,1723.211792 1556.323975,1759.423584 1556.323975,1796.330566 
	C1560.515747,1796.330566 1563.469238,1796.330444 1566.422729,1796.330444 
	C1587.420410,1796.330444 1608.418335,1796.369629 1629.415771,1796.296021 
	C1633.401123,1796.282104 1637.449829,1796.189331 1641.357910,1795.500610 
	C1656.074219,1792.907349 1666.378906,1784.854858 1670.268921,1770.099609 
	C1672.199341,1762.777344 1674.022217,1755.177002 1674.148315,1747.673218 
	C1674.607300,1720.350586 1674.691895,1693.007812 1674.108276,1665.689941 
	C1673.934814,1657.568604 1672.007202,1649.179810 1669.249390,1641.500244 
	C1666.202271,1633.014404 1659.490845,1627.282227 1650.180176,1625.698730 
	C1644.638916,1624.756104 1639.015015,1623.812134 1633.419800,1623.759766 
	C1610.424316,1623.543945 1587.425659,1623.646484 1564.428223,1623.703369 
	C1561.906616,1623.709595 1559.385986,1624.176636 1556.323975,1624.484375 
	C1556.323975,1645.100830 1556.323975,1665.050415 1556.323975,1687.000000 
z"/>
<path fill="#434443" opacity="1.000000" stroke="none" 
	d="
M640.323181,1831.999268 
	C640.301025,1803.674683 640.281372,1776.349976 640.240906,1749.025146 
	C640.239929,1748.387695 640.003845,1747.750610 639.735168,1746.396118 
	C603.474670,1746.396118 567.075684,1746.396118 529.793579,1746.396118 
	C529.793579,1788.053955 529.793579,1829.545288 529.793579,1871.681763 
	C500.166229,1871.681763 471.411438,1871.681763 442.160461,1871.681763 
	C442.160461,1763.941162 442.160461,1656.457642 442.160461,1548.317871 
	C471.020477,1548.317871 499.791534,1548.317871 529.371460,1548.317871 
	C529.371460,1588.390015 529.371460,1628.260620 529.371460,1667.899658 
	C537.050598,1670.046509 627.787537,1670.489380 640.139648,1668.526978 
	C640.139648,1628.820923 640.139648,1588.972290 640.139648,1548.396973 
	C669.698853,1548.396973 698.449158,1548.396973 727.768555,1548.396973 
	C727.768555,1655.916016 727.768555,1763.399780 727.768555,1871.611084 
	C699.119812,1871.611084 670.341370,1871.611084 640.323181,1871.611084 
	C640.323181,1858.772583 640.323181,1845.885864 640.323181,1831.999268 
z"/>
<path fill="#434443" opacity="1.000000" stroke="none" 
	d="
M234.028564,1789.680542 
	C226.397171,1789.680542 219.762024,1789.680542 211.913910,1789.680542 
	C211.913910,1817.167969 211.913910,1844.251587 211.913910,1871.823853 
	C182.240250,1871.823853 153.782181,1871.823853 124.821609,1871.823853 
	C124.821609,1763.882812 124.821609,1656.430786 124.821609,1548.254761 
	C127.553688,1548.046509 130.095154,1547.685181 132.636810,1547.683716 
	C187.609116,1547.651245 242.581879,1547.536621 297.553436,1547.739502 
	C312.540192,1547.794800 327.288910,1550.104370 341.591919,1554.952759 
	C365.225250,1562.964111 381.244080,1578.697144 389.588165,1602.120239 
	C394.400482,1615.629150 397.382019,1629.625732 397.854065,1643.969727 
	C398.739624,1670.878174 399.385040,1697.774780 394.262939,1724.466187 
	C387.515594,1759.626953 367.807495,1779.869873 332.528046,1785.647705 
	C318.182343,1787.997192 303.538879,1789.002441 288.991547,1789.525879 
	C271.024048,1790.172363 253.015579,1789.680542 234.028564,1789.680542 
M305.474152,1638.403442 
	C301.807037,1630.397583 295.300415,1626.357056 286.814392,1625.239990 
	C281.892700,1624.592285 276.943146,1623.796509 271.999023,1623.744507 
	C254.670258,1623.562134 237.338379,1623.652954 220.007812,1623.696899 
	C217.453583,1623.703369 214.900146,1624.016846 212.469910,1624.180054 
	C210.691101,1640.644653 211.300247,1705.998413 213.585114,1714.435669 
	C237.796066,1713.605103 262.356689,1713.118774 286.870209,1711.773682 
	C299.396942,1711.086304 306.035583,1705.184448 307.268188,1692.568970 
	C308.977417,1675.075684 310.148590,1657.382568 305.474152,1638.403442 
z"/>
<path fill="#434443" opacity="1.000000" stroke="none" 
	d="
M1795.672363,1821.605957 
	C1817.716797,1747.616211 1839.552734,1674.406250 1861.440918,1601.211670 
	C1865.172729,1588.732422 1870.087769,1576.764404 1877.958984,1566.231201 
	C1887.780518,1553.087891 1900.997559,1546.488647 1917.345093,1546.350220 
	C1933.340820,1546.214722 1949.353760,1546.765991 1965.331543,1546.215210 
	C1988.767822,1545.407227 2005.071045,1556.464233 2014.775024,1576.643188 
	C2021.353760,1590.323486 2026.146606,1604.988281 2030.535278,1619.574829 
	C2052.736572,1693.365723 2074.562988,1767.269531 2096.465088,1841.150269 
	C2099.193115,1850.352295 2101.591797,1859.651978 2104.353027,1869.667603 
	C2074.721436,1869.667603 2045.627930,1869.667603 2015.738525,1869.667603 
	C2010.742554,1852.141235 2005.668945,1834.342163 2000.497437,1816.199707 
	C1962.150391,1816.199707 1924.286987,1816.199707 1885.906372,1816.199707 
	C1880.814209,1834.003052 1875.721436,1851.808350 1870.568726,1869.823486 
	C1840.803711,1869.823486 1811.671875,1869.823486 1781.753906,1869.823486 
	C1786.461304,1853.558105 1790.971436,1837.974487 1795.672363,1821.605957 
M1914.293945,1705.391724 
	C1911.101807,1720.540039 1907.909546,1735.688477 1904.655884,1751.128662 
	C1930.636353,1751.128662 1955.807739,1751.128662 1981.211182,1751.128662 
	C1981.121460,1749.613525 1981.188599,1748.638794 1980.991089,1747.721069 
	C1976.244507,1725.657959 1971.488159,1703.596924 1966.693970,1681.544067 
	C1962.463745,1662.085205 1958.305176,1642.609619 1953.870972,1623.197021 
	C1952.041992,1615.189331 1946.113892,1612.052612 1938.957886,1614.900391 
	C1934.496826,1616.675659 1932.972046,1620.374878 1931.985107,1624.985718 
	C1926.359375,1651.270996 1920.393555,1677.483398 1914.293945,1705.391724 
z"/>
<path fill="#434443" opacity="1.000000" stroke="none" 
	d="
M778.166260,1872.339355 
	C771.896912,1872.339355 766.600830,1872.339355 759.998291,1872.339355 
	C764.104614,1858.421753 767.878479,1845.510498 771.723206,1832.620239 
	C794.414917,1756.540894 817.134521,1680.469849 839.814209,1604.386841 
	C843.538513,1591.892944 848.240479,1579.885498 855.742859,1569.083496 
	C865.136475,1555.558594 878.089722,1548.234619 894.398132,1547.797485 
	C912.715942,1547.306519 931.063416,1547.379517 949.385925,1547.770996 
	C965.749695,1548.120728 978.639099,1555.473877 988.117493,1568.888916 
	C996.495544,1580.746460 1001.459045,1594.102173 1005.556213,1607.845947 
	C1030.894653,1692.843018 1056.209839,1777.847168 1081.498535,1862.859131 
	C1082.326294,1865.641724 1082.788940,1868.532837 1083.540894,1871.907959 
	C1053.708984,1871.907959 1024.487183,1871.907959 994.812805,1871.907959 
	C989.565063,1853.526367 984.389221,1835.396851 979.093750,1816.848145 
	C941.346069,1816.848145 903.774963,1816.848145 865.074707,1816.848145 
	C859.928284,1834.811768 854.667236,1853.175903 849.177063,1872.339355 
	C825.679565,1872.339355 802.409546,1872.339355 778.166260,1872.339355 
M926.050781,1616.143799 
	C914.644592,1615.587158 913.207336,1616.402588 910.860474,1626.936279 
	C905.161560,1652.515991 899.692627,1678.147095 894.114868,1703.753906 
	C890.663574,1719.598267 887.183167,1735.436401 883.603271,1751.791748 
	C909.481934,1751.791748 934.631958,1751.791748 959.776489,1751.791748 
	C959.776489,1750.252686 959.957153,1749.217407 959.750610,1748.266113 
	C950.880249,1707.420654 942.051941,1666.565674 932.929443,1625.776367 
	C932.200317,1622.516113 929.412048,1619.716309 926.050781,1616.143799 
z"/>
<path fill="#434443" opacity="1.000000" stroke="none" 
	d="
M1335.547729,1623.676636 
	C1306.670288,1623.678101 1278.753906,1623.678101 1249.990479,1623.678101 
	C1249.990479,1706.518188 1249.990479,1788.635254 1249.990479,1871.889648 
	C1220.419556,1872.876465 1191.669434,1872.033325 1162.066406,1872.400757 
	C1162.066406,1789.593384 1162.066406,1707.479614 1162.066406,1624.324463 
	C1151.854736,1623.088745 1142.315918,1623.834717 1132.840576,1623.708496 
	C1122.848511,1623.575195 1112.853271,1623.678589 1102.859497,1623.678589 
	C1093.218628,1623.678589 1083.577637,1623.678589 1074.083374,1623.678589 
	C1071.923218,1616.309570 1071.323608,1564.739990 1073.152588,1548.319580 
	C1162.464600,1548.319580 1251.852539,1548.319580 1341.923096,1548.319580 
	C1342.063354,1550.985596 1342.311157,1553.546997 1342.315063,1556.108643 
	C1342.346313,1576.429443 1342.267456,1596.750488 1342.382080,1617.070679 
	C1342.406006,1621.319946 1341.812744,1624.438477 1335.547729,1623.676636 
z"/>
<path fill="#434443" opacity="1.000000" stroke="none" 
	d="
M2316.000000,1623.678467 
	C2300.372070,1623.678467 2285.744385,1623.678467 2269.945312,1623.678467 
	C2269.945312,1706.485596 2269.945312,1788.853149 2269.945312,1871.775635 
	C2240.260010,1871.775635 2211.739990,1871.775635 2181.757568,1871.775635 
	C2181.563721,1858.559448 2181.694824,1845.058105 2181.672119,1831.564331 
	C2181.648438,1817.573853 2181.666748,1803.583496 2181.666748,1789.593018 
	C2181.666748,1775.935669 2181.666748,1762.278442 2181.666748,1748.621094 
	C2181.666748,1734.963745 2181.666748,1721.306396 2181.666748,1707.649048 
	C2181.666748,1693.658569 2181.666748,1679.668213 2181.666748,1665.677734 
	C2181.666748,1652.087646 2181.666748,1638.497681 2181.666748,1623.861328 
	C2151.762939,1623.861328 2122.643311,1623.861328 2092.932617,1623.861328 
	C2092.932617,1598.317261 2092.932617,1573.823120 2092.932617,1549.286011 
	C2100.270508,1547.084595 2332.500000,1546.061768 2361.625488,1548.195312 
	C2361.625488,1572.902832 2361.625488,1597.675293 2361.625488,1623.678467 
	C2346.761230,1623.678467 2331.880615,1623.678467 2316.000000,1623.678467 
z"/>
<path fill="#464746" opacity="1.000000" stroke="none" 
	d="
M1401.700684,2144.000000 
	C1401.700562,2161.565674 1401.700562,2178.131348 1401.700562,2195.187500 
	C1393.454224,2195.187500 1386.273193,2195.187500 1378.364258,2195.187500 
	C1378.364258,2130.593018 1378.364258,2066.132324 1378.364258,2000.984131 
	C1388.345093,2000.984131 1398.520386,2000.984131 1409.050781,2000.984131 
	C1442.071289,2052.833252 1475.242188,2104.918457 1508.412964,2157.003418 
	C1508.948120,2156.886963 1509.483398,2156.770264 1510.018555,2156.653809 
	C1510.018555,2104.985352 1510.018555,2053.316895 1510.018555,2000.978882 
	C1518.468018,2000.978882 1525.893066,2000.978882 1533.842041,2000.978882 
	C1533.842041,2065.750244 1533.842041,2130.207275 1533.842041,2195.671387 
	C1524.503906,2195.671387 1515.569092,2196.037842 1506.704346,2195.412109 
	C1504.507446,2195.256592 1502.011108,2192.222656 1500.543213,2189.939209 
	C1482.913940,2162.515625 1465.437378,2134.993652 1447.952271,2107.477539 
	C1434.036987,2085.579102 1420.171753,2063.648682 1406.255493,2041.750854 
	C1405.453003,2040.487915 1404.390625,2039.390259 1401.700684,2038.655640 
	C1401.700684,2073.437012 1401.700684,2108.218506 1401.700684,2144.000000 
z"/>
<path fill="#484948" opacity="1.000000" stroke="none" 
	d="
M1271.713623,2117.696533 
	C1269.888550,2132.748047 1269.028931,2147.049316 1265.994141,2160.873047 
	C1262.200439,2178.153564 1249.806152,2187.855713 1232.938232,2191.654053 
	C1226.183105,2193.175293 1219.172729,2194.101318 1212.254150,2194.263672 
	C1182.685059,2194.958008 1153.106812,2195.268066 1123.531860,2195.708740 
	C1120.920288,2195.747559 1118.307495,2195.713623 1114.992188,2195.713623 
	C1114.992188,2130.615479 1114.992188,2066.216797 1114.992188,2000.895142 
	C1117.656250,2000.701416 1120.510498,2000.318726 1123.365356,2000.313721 
	C1149.664551,2000.267334 1175.971436,1999.914307 1202.259033,2000.465088 
	C1213.122559,2000.692749 1224.153442,2001.986938 1234.739502,2004.407471 
	C1253.087402,2008.602783 1264.117188,2021.124146 1267.505859,2039.311768 
	C1269.922241,2052.280273 1270.877686,2065.587402 1271.570923,2078.791504 
	C1272.233398,2091.406738 1271.713745,2104.084229 1271.713623,2117.696533 
M1194.963989,2023.710327 
	C1176.762695,2023.710327 1158.561523,2023.710327 1140.213257,2023.710327 
	C1140.213257,2073.754395 1140.213257,2122.574463 1140.213257,2171.778564 
	C1141.923828,2171.977783 1143.183350,2172.250244 1144.443359,2172.252441 
	C1163.771362,2172.284668 1183.103027,2172.501221 1202.425415,2172.174072 
	C1209.683960,2172.051514 1216.961670,2170.904053 1224.156860,2169.759766 
	C1233.128540,2168.333740 1239.279785,2163.090332 1242.156372,2154.445068 
	C1243.613647,2150.064697 1245.084351,2145.543457 1245.511475,2140.988770 
	C1248.152466,2112.815186 1248.653687,2084.604004 1245.541138,2056.429443 
	C1245.036987,2051.865479 1243.419922,2047.425415 1242.326172,2042.925903 
	C1240.040527,2033.523193 1233.892944,2027.614380 1224.656616,2026.066162 
	C1215.544067,2024.538818 1206.192383,2024.437378 1194.963989,2023.710327 
z"/>
<path fill="#474847" opacity="1.000000" stroke="none" 
	d="
M1662.044434,2096.293457 
	C1683.643555,2096.293457 1704.251953,2096.293457 1725.487061,2096.293457 
	C1725.820801,2099.005859 1726.392090,2101.204834 1726.311523,2103.379639 
	C1725.636230,2121.627686 1725.759766,2139.969482 1723.831665,2158.090332 
	C1721.781982,2177.353760 1709.933594,2189.205811 1690.993896,2193.448242 
	C1684.872925,2194.819092 1678.525269,2195.952637 1672.291870,2195.901611 
	C1654.375854,2195.755371 1636.351562,2196.028076 1618.578003,2194.157471 
	C1589.060913,2191.051025 1579.978638,2173.072754 1576.444580,2153.251465 
	C1571.593750,2126.046387 1570.725708,2098.495850 1573.513550,2070.909668 
	C1574.380249,2062.333740 1574.584595,2053.665527 1575.901001,2045.164795 
	C1579.952026,2019.004395 1593.563965,2004.694214 1619.746338,2000.737793 
	C1643.126099,1997.205078 1666.713501,1997.113403 1690.043335,2001.937134 
	C1711.175537,2006.306274 1721.776001,2017.982788 1723.762695,2039.417847 
	C1724.464233,2046.985962 1723.874756,2054.673828 1723.874756,2063.006348 
	C1716.399048,2063.006348 1708.957153,2063.006348 1700.281494,2063.006348 
	C1700.281494,2057.971680 1700.445801,2053.074219 1700.251343,2048.190918 
	C1699.610107,2032.093018 1694.831787,2025.943359 1678.717773,2023.363037 
	C1660.276001,2020.410034 1641.681274,2020.684692 1623.162964,2023.635620 
	C1611.607056,2025.477051 1604.504761,2032.441528 1601.869019,2043.303589 
	C1599.694702,2052.264160 1598.102905,2061.576660 1597.917603,2070.766846 
	C1597.508179,2091.063232 1597.802002,2111.393555 1598.539673,2131.683105 
	C1598.812866,2139.200684 1600.384521,2146.885498 1602.702881,2154.061768 
	C1605.880127,2163.896973 1613.048706,2170.116943 1623.544189,2171.942871 
	C1643.033203,2175.333252 1662.556641,2174.929688 1682.009155,2171.920166 
	C1691.819946,2170.402344 1698.668091,2164.630615 1699.996094,2154.514160 
	C1701.538330,2142.764404 1702.060669,2130.881104 1703.126099,2117.826172 
	C1680.910400,2117.826172 1660.131470,2117.826172 1638.838623,2117.826172 
	C1638.838623,2110.240723 1638.838623,2103.787354 1638.838623,2096.293457 
	C1646.565308,2096.293457 1653.809570,2096.293457 1662.044434,2096.293457 
z"/>
<path fill="#464746" opacity="1.000000" stroke="none" 
	d="
M1875.764893,2192.210449 
	C1870.149414,2193.500732 1865.342285,2195.266602 1860.453613,2195.532715 
	C1838.210815,2196.743408 1815.921143,2197.737305 1793.799927,2194.015625 
	C1774.510010,2190.770508 1763.717529,2179.372803 1761.740967,2160.035400 
	C1760.700684,2149.856445 1760.407227,2139.601562 1759.721313,2128.483887 
	C1768.148682,2128.483887 1775.567261,2128.483887 1783.717285,2128.483887 
	C1783.908325,2130.650146 1784.222900,2133.177979 1784.330078,2135.714600 
	C1784.442261,2138.374512 1784.296997,2141.043945 1784.364624,2143.706787 
	C1784.995850,2168.560303 1791.927734,2171.052002 1809.723389,2173.074707 
	C1826.504883,2174.981934 1843.536133,2175.446289 1860.355347,2172.260498 
	C1871.923828,2170.068848 1876.517700,2165.548096 1877.638794,2153.777344 
	C1878.424683,2145.528320 1878.445312,2137.144287 1878.030518,2128.859375 
	C1877.553101,2119.322510 1873.516724,2114.067383 1863.868042,2112.130371 
	C1850.918213,2109.530273 1837.681152,2108.396240 1824.618896,2106.310303 
	C1812.868286,2104.433350 1800.920044,2103.050293 1789.540039,2099.776611 
	C1773.609985,2095.194580 1765.381958,2083.857910 1763.418335,2067.027832 
	C1761.890137,2053.930664 1762.813354,2041.310913 1765.583740,2028.615479 
	C1768.328735,2016.036499 1776.472412,2008.277466 1788.130249,2004.157837 
	C1793.695923,2002.190918 1799.669556,2000.660034 1805.528931,2000.373047 
	C1825.432983,1999.398193 1845.415649,1998.050171 1865.207886,2001.706177 
	C1886.057983,2005.557495 1896.644775,2017.332520 1898.307251,2038.192749 
	C1899.008545,2046.994141 1899.437744,2055.817383 1900.026123,2065.194824 
	C1891.081177,2065.194824 1883.524536,2065.194824 1874.517944,2065.194824 
	C1874.446167,2061.158936 1874.416748,2056.993652 1874.285278,2052.831787 
	C1874.159424,2048.844727 1874.021606,2044.854126 1873.723511,2040.877563 
	C1873.038818,2031.741577 1867.921265,2025.839355 1859.229980,2024.130127 
	C1840.159424,2020.379517 1820.938110,2020.477661 1801.822510,2024.074097 
	C1793.649780,2025.611694 1788.906860,2031.017212 1788.336792,2039.205811 
	C1787.760742,2047.480713 1787.685913,2055.836426 1788.102051,2064.121094 
	C1788.484009,2071.721924 1793.494873,2076.367676 1800.549316,2077.869629 
	C1811.534912,2080.208740 1822.675659,2081.839355 1833.774780,2083.619385 
	C1846.848511,2085.715820 1860.064331,2087.095947 1873.006104,2089.802246 
	C1887.998779,2092.937012 1900.836426,2102.788574 1902.670410,2123.769287 
	C1903.930542,2138.185059 1903.769409,2152.200195 1900.376465,2166.162354 
	C1897.234619,2179.090576 1889.328491,2187.856689 1875.764893,2192.210449 
z"/>
<path fill="#464746" opacity="1.000000" stroke="none" 
	d="
M774.135376,2060.373047 
	C774.991150,2048.465820 776.915710,2037.795654 781.367676,2027.593262 
	C787.467102,2013.615601 798.393799,2005.644897 812.773865,2002.454590 
	C820.494080,2000.741699 828.553345,1999.739380 836.448792,1999.801147 
	C853.699524,1999.935913 871.065979,1999.890625 888.161804,2001.858521 
	C914.863098,2004.931885 925.476013,2021.690063 929.585022,2043.624146 
	C931.407349,2053.351562 931.521179,2063.402832 932.341187,2073.312988 
	C932.859802,2079.580566 933.884705,2085.890381 933.580383,2092.127441 
	C932.611450,2111.988037 931.742615,2131.892822 929.530579,2151.634277 
	C928.674316,2159.275635 925.196960,2167.014648 921.369873,2173.843994 
	C914.998291,2185.213623 904.218384,2191.499756 891.604736,2193.616943 
	C865.862488,2197.938232 839.954529,2198.036865 814.229248,2193.594971 
	C796.733398,2190.574219 784.815186,2180.095459 779.376526,2163.089111 
	C777.067993,2155.870361 775.033508,2148.330566 774.507141,2140.822021 
	C773.254089,2122.946289 772.692993,2105.006348 772.422302,2087.083740 
	C772.292664,2078.499268 773.457092,2069.895508 774.135376,2060.373047 
M908.306458,2100.998047 
	C907.568298,2084.768066 907.369141,2068.490234 905.941345,2052.321045 
	C904.495483,2035.946777 896.541504,2026.469482 882.535095,2023.973755 
	C862.797424,2020.457031 842.897278,2020.501343 823.131836,2023.996094 
	C811.964783,2025.970703 804.621033,2032.811157 801.885071,2043.840820 
	C800.219666,2050.554932 798.750732,2057.475098 798.494934,2064.351318 
	C797.839966,2081.958008 797.325867,2099.610596 797.899719,2117.207764 
	C798.285706,2129.043457 799.790710,2140.997314 802.320618,2152.564453 
	C804.818237,2163.983887 813.051392,2170.199463 824.841492,2172.145508 
	C840.704956,2174.763672 856.621155,2174.750977 872.481750,2173.386963 
	C880.561951,2172.692139 888.982727,2171.789307 895.708862,2165.802490 
	C902.424438,2159.825195 905.005310,2151.970947 905.808533,2143.675049 
	C907.116943,2130.161377 907.520874,2116.560547 908.306458,2100.998047 
z"/>
<path fill="#474847" opacity="1.000000" stroke="none" 
	d="
M608.361694,2061.925537 
	C608.361755,2068.868164 608.361755,2074.824463 608.361755,2082.237549 
	C642.345947,2082.347168 675.752563,2082.271729 709.952759,2082.287354 
	C709.952759,2055.014648 709.952759,2028.486816 709.952759,2001.129395 
	C718.132141,2001.129395 725.543335,2001.129395 733.674988,2001.129395 
	C733.674988,2065.457520 733.674988,2129.918945 733.674988,2195.708008 
	C729.888306,2195.708008 726.015015,2195.708008 722.141724,2195.708008 
	C718.562622,2195.708008 714.983521,2195.708008 710.633240,2195.708008 
	C710.633240,2165.549805 710.633240,2136.353516 710.633240,2106.436523 
	C676.426941,2106.436523 642.993530,2106.436523 608.409668,2106.436523 
	C608.409668,2135.894775 608.409668,2165.346924 608.409668,2195.239258 
	C600.078796,2195.239258 592.885254,2195.239258 584.990112,2195.239258 
	C584.990112,2130.565186 584.990112,2066.119873 584.990112,2000.981934 
	C592.442383,2000.981934 599.867371,2000.981934 608.361694,2000.981934 
	C608.361694,2021.143066 608.361694,2041.041260 608.361694,2061.925537 
z"/>
<path fill="#474847" opacity="1.000000" stroke="none" 
	d="
M998.022583,2195.709473 
	C989.072632,2195.709229 981.118713,2195.709229 973.335876,2195.709229 
	C971.179016,2187.695557 970.302429,2024.879761 972.196899,2001.051270 
	C979.543762,2001.051270 986.969116,2001.051270 995.522827,2001.051270 
	C995.522827,2057.826660 995.522827,2114.579346 995.522827,2172.200195 
	C1026.778809,2172.200195 1056.937378,2172.200195 1087.722900,2172.200195 
	C1087.722900,2180.201416 1087.722900,2187.343506 1087.722900,2195.709473 
	C1058.100952,2195.709473 1028.559814,2195.709473 998.022583,2195.709473 
z"/>
<path fill="#4A4B4A" opacity="1.000000" stroke="none" 
	d="
M1335.728271,2092.000000 
	C1335.728149,2126.887451 1335.728149,2160.774902 1335.728149,2195.189941 
	C1326.896851,2195.189941 1319.107666,2195.189941 1310.794922,2195.189941 
	C1310.794922,2130.220215 1310.794922,2065.784424 1310.794922,2000.271729 
	C1315.176025,2000.271729 1319.086182,2000.271729 1322.996460,2000.271729 
	C1326.907227,2000.271729 1330.817993,2000.271729 1335.728271,2000.271729 
	C1335.728271,2031.220947 1335.728271,2061.110352 1335.728271,2092.000000 
z"/>
<path fill="#FEFEFE" opacity="1.000000" stroke="none" 
	d="
M1556.323975,1686.000000 
	C1556.323975,1665.050415 1556.323975,1645.100830 1556.323975,1624.484375 
	C1559.385986,1624.176636 1561.906616,1623.709595 1564.428223,1623.703369 
	C1587.425659,1623.646484 1610.424316,1623.543945 1633.419800,1623.759766 
	C1639.015015,1623.812134 1644.638916,1624.756104 1650.180176,1625.698730 
	C1659.490845,1627.282227 1666.202271,1633.014404 1669.249390,1641.500244 
	C1672.007202,1649.179810 1673.934814,1657.568604 1674.108276,1665.689941 
	C1674.691895,1693.007812 1674.607300,1720.350586 1674.148315,1747.673218 
	C1674.022217,1755.177002 1672.199341,1762.777344 1670.268921,1770.099609 
	C1666.378906,1784.854858 1656.074219,1792.907349 1641.357910,1795.500610 
	C1637.449829,1796.189331 1633.401123,1796.282104 1629.415771,1796.296021 
	C1608.418335,1796.369629 1587.420410,1796.330444 1566.422729,1796.330444 
	C1563.469238,1796.330444 1560.515747,1796.330566 1556.323975,1796.330566 
	C1556.323975,1759.423584 1556.323975,1723.211792 1556.323975,1686.000000 
z"/>
<path fill="#FEFEFE" opacity="1.000000" stroke="none" 
	d="
M305.748169,1639.167480 
	C310.148590,1657.382568 308.977417,1675.075684 307.268188,1692.568970 
	C306.035583,1705.184448 299.396942,1711.086304 286.870209,1711.773682 
	C262.356689,1713.118774 237.796066,1713.605103 213.585114,1714.435669 
	C211.300247,1705.998413 210.691101,1640.644653 212.469910,1624.180054 
	C214.900146,1624.016846 217.453583,1623.703369 220.007812,1623.696899 
	C237.338379,1623.652954 254.670258,1623.562134 271.999023,1623.744507 
	C276.943146,1623.796509 281.892700,1624.592285 286.814392,1625.239990 
	C295.300415,1626.357056 301.807037,1630.397583 305.748169,1639.167480 
z"/>
<path fill="#FBFBFB" opacity="1.000000" stroke="none" 
	d="
M1914.418701,1704.556152 
	C1920.393555,1677.483398 1926.359375,1651.270996 1931.985107,1624.985718 
	C1932.972046,1620.374878 1934.496826,1616.675659 1938.957886,1614.900391 
	C1946.113892,1612.052612 1952.041992,1615.189331 1953.870972,1623.197021 
	C1958.305176,1642.609619 1962.463745,1662.085205 1966.693970,1681.544067 
	C1971.488159,1703.596924 1976.244507,1725.657959 1980.991089,1747.721069 
	C1981.188599,1748.638794 1981.121460,1749.613525 1981.211182,1751.128662 
	C1955.807739,1751.128662 1930.636353,1751.128662 1904.655884,1751.128662 
	C1907.909546,1735.688477 1911.101807,1720.540039 1914.418701,1704.556152 
z"/>
<path fill="#FDFDFD" opacity="1.000000" stroke="none" 
	d="
M926.815674,1616.423096 
	C929.412048,1619.716309 932.200317,1622.516113 932.929443,1625.776367 
	C942.051941,1666.565674 950.880249,1707.420654 959.750610,1748.266113 
	C959.957153,1749.217407 959.776489,1750.252686 959.776489,1751.791748 
	C934.631958,1751.791748 909.481934,1751.791748 883.603271,1751.791748 
	C887.183167,1735.436401 890.663574,1719.598267 894.114868,1703.753906 
	C899.692627,1678.147095 905.161560,1652.515991 910.860474,1626.936279 
	C913.207336,1616.402588 914.644592,1615.587158 926.815674,1616.423096 
z"/>
<path fill="#FEFEFE" opacity="1.000000" stroke="none" 
	d="
M1195.954834,2023.710205 
	C1206.192383,2024.437378 1215.544067,2024.538818 1224.656616,2026.066162 
	C1233.892944,2027.614380 1240.040527,2033.523193 1242.326172,2042.925903 
	C1243.419922,2047.425415 1245.036987,2051.865479 1245.541138,2056.429443 
	C1248.653687,2084.604004 1248.152466,2112.815186 1245.511475,2140.988770 
	C1245.084351,2145.543457 1243.613647,2150.064697 1242.156372,2154.445068 
	C1239.279785,2163.090332 1233.128540,2168.333740 1224.156860,2169.759766 
	C1216.961670,2170.904053 1209.683960,2172.051514 1202.425415,2172.174072 
	C1183.103027,2172.501221 1163.771362,2172.284668 1144.443359,2172.252441 
	C1143.183350,2172.250244 1141.923828,2171.977783 1140.213257,2171.778564 
	C1140.213257,2122.574463 1140.213257,2073.754395 1140.213257,2023.710327 
	C1158.561523,2023.710327 1176.762695,2023.710327 1195.954834,2023.710205 
z"/>
<path fill="#FEFEFE" opacity="1.000000" stroke="none" 
	d="
M908.306519,2101.997070 
	C907.520874,2116.560547 907.116943,2130.161377 905.808533,2143.675049 
	C905.005310,2151.970947 902.424438,2159.825195 895.708862,2165.802490 
	C888.982727,2171.789307 880.561951,2172.692139 872.481750,2173.386963 
	C856.621155,2174.750977 840.704956,2174.763672 824.841492,2172.145508 
	C813.051392,2170.199463 804.818237,2163.983887 802.320618,2152.564453 
	C799.790710,2140.997314 798.285706,2129.043457 797.899719,2117.207764 
	C797.325867,2099.610596 797.839966,2081.958008 798.494934,2064.351318 
	C798.750732,2057.475098 800.219666,2050.554932 801.885071,2043.840820 
	C804.621033,2032.811157 811.964783,2025.970703 823.131836,2023.996094 
	C842.897278,2020.501343 862.797424,2020.457031 882.535095,2023.973755 
	C896.541504,2026.469482 904.495483,2035.946777 905.941345,2052.321045 
	C907.369141,2068.490234 907.568298,2084.768066 908.306519,2101.997070 
z"/>
</svg>